<svg width="49" height="43" viewBox="0 0 49 43" fill="none" xmlns="http://www.w3.org/2000/svg">
<path class="hw_svgicon__fill"  d="M0 8.19601C0 6.74753 1.17423 5.5733 2.62271 5.5733H7.86813C8.32078 5.5733 8.68773 5.94025 8.68773 6.3929V6.3929C8.68773 6.84555 9.05468 7.2125 9.50733 7.2125H12.13C12.5827 7.2125 12.9496 6.84555 12.9496 6.3929V6.3929C12.9496 5.94025 13.3166 5.5733 13.7692 5.5733L26.1451 5.5733C26.5525 5.5733 26.8828 5.90355 26.8828 6.31094V6.31094C26.8828 6.71833 27.213 7.04858 27.6204 7.04858H30.7349C31.1423 7.04858 31.4725 6.71833 31.4725 6.31094V6.31094C31.4725 5.90355 31.8028 5.5733 32.2102 5.5733H37.3736C38.8221 5.5733 39.9963 6.74753 39.9963 8.19601V8.85169V30.1612L37.4861 32.6714C36.9943 33.1633 36.3272 33.4396 35.6316 33.4396H34.0952C33.1899 33.4396 32.456 32.7057 32.456 31.8004V31.8004C32.456 30.8951 33.1899 30.1612 34.0952 30.1612H34.587C35.7639 30.1612 36.718 29.2072 36.718 28.0303V11.4744C36.718 10.0259 35.5437 8.85169 34.0952 8.85169H5.9011C4.45262 8.85169 3.27839 10.0259 3.27839 11.4744V27.5385C3.27839 28.987 4.45262 30.1612 5.9011 30.1612H39.9963V30.8169C39.9963 32.2654 38.8221 33.4396 37.3736 33.4396H3.27839H2.62271C1.17423 33.4396 0 32.2654 0 30.8169V30.1612V8.85169V8.19601Z" fill="#FF843F"/>
<rect class="hw_svgicon__fill_b hw_svgicon__stroke"  x="24.2606" y="18.6868" width="22.6209" height="22.6209" rx="11.3104" fill="#382A3A" stroke="#FF843F" stroke-width="2.62271"/>
<rect class="hw_svgicon__fill"  x="6.55664" y="11.4744" width="4.2619" height="4.2619" rx="0.983517" fill="#FF843F"/>
<rect class="hw_svgicon__fill"  x="14.0977" y="11.4744" width="4.2619" height="4.2619" rx="0.983517" fill="#FF843F"/>
<rect class="hw_svgicon__fill"  x="6.55664" y="17.7034" width="4.2619" height="4.2619" rx="0.983517" fill="#FF843F"/>
<rect class="hw_svgicon__fill"  x="14.0977" y="17.7033" width="4.2619" height="4.2619" rx="0.983517" fill="#FF843F"/>
<rect class="hw_svgicon__fill"  x="6.55664" y="23.6044" width="4.2619" height="4.2619" rx="0.983517" fill="#FF843F"/>
<rect class="hw_svgicon__fill"  x="14.0977" y="23.6044" width="4.2619" height="4.2619" rx="0.983517" fill="#FF843F"/>
<rect class="hw_svgicon__fill"  x="21.6367" y="17.7034" width="4.2619" height="4.2619" rx="0.983517" fill="#FF843F"/>
<path class="hw_svgicon__fill"  d="M21.6367 24.5879C21.6367 24.0447 22.0771 23.6044 22.6202 23.6044H24.7101C25.3271 23.6044 25.7917 24.1658 25.6762 24.7719L25.3634 26.4143C25.2902 26.7984 24.9965 27.1027 24.6152 27.1893L22.8382 27.5932C22.2228 27.7331 21.6367 27.2653 21.6367 26.6342V24.5879Z" fill="#FF843F"/>
<path class="hw_svgicon__fill"  d="M29.1768 18.6868C29.1768 18.1436 29.6171 17.7033 30.1603 17.7033H32.4551C32.9983 17.7033 33.4387 18.1436 33.4387 18.6868V19.0664C33.4387 19.5177 33.1315 19.911 32.6937 20.0205L32.2733 20.1256C32.1765 20.1498 32.084 20.1886 31.9989 20.2405L30.6731 21.0508C30.0178 21.4513 29.1768 20.9796 29.1768 20.2115V18.6868Z" fill="#FF843F"/>
<rect class="hw_svgicon__fill"  x="21.6367" y="11.4744" width="4.2619" height="4.2619" rx="0.983517" fill="#FF843F"/>
<rect class="hw_svgicon__fill"  x="29.1768" y="11.4744" width="4.2619" height="4.2619" rx="0.983517" fill="#FF843F"/>
<path class="hw_svgicon__fill"  d="M28.6178 31.898C28.2733 31.5673 28.0953 31.1274 28.0863 30.6844C28.0774 30.2416 28.2377 29.7947 28.5683 29.4503C28.8987 29.1062 29.3388 28.9281 29.7817 28.9192C30.2248 28.9101 30.6716 29.0698 31.0162 29.4008L33.9922 32.2638L39.9171 24.7389L40.1293 24.9008L39.9168 24.7382C39.9338 24.7162 39.953 24.6975 39.9743 24.6822C40.3268 24.377 40.7693 24.2392 41.2017 24.2627V24.2622L41.2228 24.2641C41.6578 24.293 42.0827 24.4862 42.3964 24.8362C42.7156 25.1921 42.8602 25.6442 42.8361 26.0861H42.8366L42.8347 26.1072C42.8063 26.5343 42.6196 26.9516 42.2813 27.2634L35.1708 35.9168L35.1713 35.9173C35.158 35.9342 35.143 35.9488 35.1266 35.9615C34.7937 36.2538 34.3733 36.3971 33.9552 36.3899C33.5337 36.3826 33.113 36.2223 32.7857 35.9078L28.6178 31.898Z" fill="#FF843F"/>
<rect class="hw_svgicon__fill"  x="9.17969" y="6.10352e-05" width="3.27839" height="6.55678" rx="0.983517" fill="#FF843F"/>
<rect class="hw_svgicon__fill"  x="27.5381" width="3.27839" height="6.55678" rx="0.983517" fill="#FF843F"/>
</svg>
