<svg width="35" height="31" viewBox="0 0 35 31" fill="none" xmlns="http://www.w3.org/2000/svg">
<path class="hw_svgicon__fill" fill-rule="evenodd" clip-rule="evenodd" d="M6.30952 4.59524C6.30952 4.2665 6.04303 4 5.71429 4H1.90476C0.852791 4 0 4.85279 0 5.90476V6.38095V21.8571V22.3333C0 23.3853 0.852792 24.2381 1.90476 24.2381H2.38095H17.5V21.8571H4.28571C3.23374 21.8571 2.38095 21.0044 2.38095 19.9524V8.28571C2.38095 7.23374 3.23374 6.38095 4.28572 6.38095H24.7619C25.8139 6.38095 26.6667 7.23374 26.6667 8.28571V13L29.0476 13.5V6.38095V5.90476C29.0476 4.85279 28.1948 4 27.1429 4H23.3929C23.097 4 22.8571 4.23985 22.8571 4.53571C22.8571 4.83158 22.6173 5.07143 22.3214 5.07143H20.0595C19.7637 5.07143 19.5238 4.83158 19.5238 4.53571C19.5238 4.23985 19.284 4 18.9881 4L10 4C9.67126 4 9.40476 4.2665 9.40476 4.59524C9.40476 4.92398 9.13826 5.19048 8.80952 5.19048H6.90476C6.57602 5.19048 6.30952 4.92398 6.30952 4.59524Z" fill="#FF843F"/>
<rect class="hw_svgicon__stroke" x="17.6189" y="13.5715" width="16.4286" height="16.4286" rx="8.21429" stroke="#FF843F" stroke-width="1.90476"/>
<rect class="hw_svgicon__fill" x="4.76172" y="8.33331" width="3.09524" height="3.09524" rx="0.714286" fill="#FF843F"/>
<rect class="hw_svgicon__fill" x="10.2383" y="8.33331" width="3.09524" height="3.09524" rx="0.714286" fill="#FF843F"/>
<rect class="hw_svgicon__fill" x="4.76172" y="12.8571" width="3.09524" height="3.09524" rx="0.714286" fill="#FF843F"/>
<rect class="hw_svgicon__fill" x="10.2383" y="12.8571" width="3.09524" height="3.09524" rx="0.714286" fill="#FF843F"/>
<rect class="hw_svgicon__fill" x="4.76172" y="17.1429" width="3.09524" height="3.09524" rx="0.714286" fill="#FF843F"/>
<rect class="hw_svgicon__fill" x="10.2383" y="17.1429" width="3.09524" height="3.09524" rx="0.714286" fill="#FF843F"/>
<rect class="hw_svgicon__fill" x="15.7144" y="12.8571" width="3.09524" height="3.09524" rx="0.714286" fill="#FF843F"/>
<path class="hw_svgicon__fill" d="M15.7144 17.8572C15.7144 17.4627 16.0342 17.1429 16.4286 17.1429H17.9464C18.3945 17.1429 18.7319 17.5507 18.6481 17.9908L18.4209 19.1836C18.3677 19.4626 18.1544 19.6836 17.8775 19.7465L16.5869 20.0398C16.14 20.1414 15.7144 19.8017 15.7144 19.3433V17.8572Z" fill="#FF843F"/>
<path class="hw_svgicon__fill" d="M21.1904 13.5714C21.1904 13.1769 21.5102 12.8571 21.9047 12.8571H23.5714C23.9659 12.8571 24.2857 13.1769 24.2857 13.5714V13.847C24.2857 14.1748 24.0626 14.4605 23.7446 14.54L23.4393 14.6163C23.369 14.6339 23.3019 14.662 23.2401 14.6998L22.2772 15.2882C21.8012 15.5791 21.1904 15.2365 21.1904 14.6787V13.5714Z" fill="#FF843F"/>
<rect class="hw_svgicon__fill" x="15.7144" y="8.33331" width="3.09524" height="3.09524" rx="0.714286" fill="#FF843F"/>
<rect class="hw_svgicon__fill" x="21.1904" y="8.33331" width="3.09524" height="3.09524" rx="0.714286" fill="#FF843F"/>
<path class="hw_svgicon__fill" d="M20.7847 23.1661C20.5345 22.926 20.4052 22.6065 20.3987 22.2848C20.3922 21.9632 20.5086 21.6386 20.7488 21.3885C20.9887 21.1386 21.3083 21.0092 21.63 21.0027C21.9518 20.9961 22.2763 21.1121 22.5266 21.3525L24.6879 23.4318L28.9909 17.9668L29.145 18.0844L28.9907 17.9663C29.003 17.9503 29.0169 17.9367 29.0325 17.9256C29.2885 17.7039 29.6098 17.6039 29.9239 17.6209V17.6206L29.9392 17.622C30.2551 17.6429 30.5637 17.7833 30.7915 18.0375C31.0233 18.296 31.1284 18.6243 31.1108 18.9452H31.1112L31.1098 18.9605C31.0892 19.2707 30.9536 19.5738 30.7079 19.8002L25.5439 26.0848L25.5442 26.0852C25.5346 26.0975 25.5237 26.108 25.5118 26.1173C25.27 26.3296 24.9647 26.4336 24.661 26.4284C24.3549 26.4231 24.0494 26.3067 23.8117 26.0783L20.7847 23.1661Z" fill="#FF843F"/>
<rect class="hw_svgicon__fill" x="6.66699" width="2.38095" height="4.7619" rx="0.714286" fill="#FF843F"/>
<rect class="hw_svgicon__fill" x="20" width="2.38095" height="4.7619" rx="0.714286" fill="#FF843F"/>
</svg>
