<svg width="26" height="21" viewBox="0 0 26 21" fill="none" xmlns="http://www.w3.org/2000/svg">
<path class="hw_svgicon__fill" d="M0.937339 13.223C0.330278 12.6505 0.0164862 11.8888 0.000616685 11.122C-0.0150412 10.3554 0.267435 9.5817 0.850162 8.98549C1.43247 8.38969 2.20795 8.0813 2.98852 8.06592C3.76951 8.05012 4.55685 8.32672 5.16433 8.89966L10.4091 13.8562L20.851 0.828844L21.2251 1.10918L20.8506 0.827597C20.8804 0.789567 20.9143 0.757148 20.9519 0.730756C21.5732 0.202289 22.3529 -0.0362803 23.115 0.00445095L23.1523 0.00694471C23.9189 0.0568197 24.6677 0.391398 25.2206 0.99738C25.783 1.61354 26.038 2.39617 25.9954 3.16112L25.9929 3.1977C25.943 3.9371 25.6139 4.65966 25.0177 5.19935L12.4863 20.1806L12.4871 20.1814C12.4637 20.2107 12.4372 20.2358 12.4084 20.2579C11.8217 20.7639 11.0807 21.012 10.3439 20.9996C9.60101 20.9869 8.85959 20.7094 8.28279 20.165L0.937339 13.223Z" fill="#FF843F"/>
</svg>
