<svg width="22" height="22" viewBox="0 0 22 22" fill="none" xmlns="http://www.w3.org/2000/svg">
<path class="hw_svgicon__fill" d="M20.8965 1.55886C21.8276 2.48288 21.8276 3.98057 20.896 4.90511L14.6356 11.1177L20.8961 17.3305C21.8275 18.2547 21.8272 19.7527 20.8959 20.6763C20.4303 21.1384 19.8205 21.3696 19.2108 21.3695C18.6003 21.3693 17.9904 21.1385 17.5253 20.6765L11.2639 14.4633L5.00277 20.6767C4.53747 21.1384 3.92799 21.3693 3.31716 21.3694C2.70785 21.3694 2.0979 21.1382 1.63233 20.6762C0.701127 19.7526 0.70098 18.2548 1.6325 17.3303L7.89295 11.1176L1.63241 4.90478C0.701168 3.98064 0.701355 2.48228 1.63245 1.55828C2.56347 0.634858 4.07191 0.63459 5.00352 1.55811L11.2647 7.77156L17.5258 1.5582C18.4572 0.634861 19.9651 0.635467 20.8965 1.55886Z" fill="#382A3A"/>
</svg>
