<svg width="77" height="77" viewBox="0 0 77 77" fill="none" xmlns="http://www.w3.org/2000/svg">
<path class="hw_svgicon__fill" d="M57.5459 19.497C59.3981 21.334 59.3981 24.3115 57.5448 26.1496L45.0917 38.5008L57.5451 50.8523C59.3978 52.6898 59.3972 55.6679 57.5447 57.5042C56.6186 58.4228 55.4055 58.8825 54.1926 58.8822C52.9781 58.8818 51.765 58.423 50.8398 57.5045L38.3845 45.1521L25.9298 57.5049C25.0042 58.4229 23.7918 58.8819 22.5768 58.882C21.3647 58.882 20.1514 58.4225 19.2253 57.5039C17.3729 55.6677 17.3726 52.6899 19.2256 50.852L31.679 38.5006L19.2254 26.1489C17.373 24.3117 17.3734 21.3328 19.2255 19.4958C21.0775 17.66 24.0781 17.6594 25.9313 19.4955L38.3861 31.8483L50.8408 19.4956C52.6936 17.66 55.6931 17.6612 57.5459 19.497Z" fill="#090909"/>
<rect class="hw_svgicon__stroke" x="4" y="4" width="69" height="69" rx="34.5" stroke="#090909" stroke-width="8"/>
</svg>
