<svg width="14" height="72" viewBox="0 0 14 72" fill="none" xmlns="http://www.w3.org/2000/svg">
<path class="hw_svgicon__fill" d="M7.0646 58.9185L3.77424 59.0147C2.87097 59.2071 2.09677 59.6239 1.45163 60.2651C0.870951 60.7782 0.48385 61.3232 0.290326 61.9003C0.0967492 62.4775 -2.6124e-05 63.6638 0 65.4593C-2.6124e-05 67.2548 0.0967492 68.4411 0.290326 69.0182C0.48385 69.5312 0.870951 70.0763 1.45163 70.6534C1.96774 71.1664 2.51613 71.5191 3.09681 71.7115C3.22581 71.7756 3.35485 71.8076 3.48391 71.8076L7.16137 72C9.22588 72 10.5807 71.8397 11.2259 71.5191C12.1936 71.0702 12.9033 70.3648 13.355 69.403C13.6775 68.7617 13.8388 67.4472 13.8389 65.4593C13.8388 63.4714 13.6775 62.1568 13.355 61.5156C12.9033 60.5537 12.1936 59.8483 11.2259 59.3995C10.5807 59.0788 9.19362 58.9185 7.0646 58.9185Z" fill="#090909"/>
<path class="hw_svgicon__fill" d="M4.01399 0H7.14685C9.30066 8.47123e-05 10.7039 0.152719 11.3566 0.457904C12.3356 0.99221 13.0536 1.8317 13.5105 2.97638C13.7715 3.66332 13.9347 4.35017 14 5.03695L12.8252 26.444C12.0419 40.2575 11.6503 47.2787 11.6503 47.5076C11.5198 48.805 11.0303 49.9116 10.1818 50.8274C9.65964 51.3616 9.07223 51.7814 8.41958 52.0866L6.95105 52.3156C6.3636 52.3156 5.90673 52.2393 5.58042 52.0866C3.68762 51.3235 2.61069 49.7971 2.34965 47.5076L0 5.03695C0.065242 4.35017 0.228411 3.66332 0.489511 2.97638C0.815824 2.21329 1.24007 1.60275 1.76224 1.14476C2.41489 0.534306 3.16547 0.152719 4.01399 0Z" fill="#090909"/>
</svg>
