<svg width="24" height="16" viewBox="0 0 24 16" fill="none" xmlns="http://www.w3.org/2000/svg">
<path class="hw_svgicon__fill" d="M6 8.61536H12.7692C13.449 8.61536 14 9.16639 14 9.84612V9.84612C14 10.5259 13.449 11.0769 12.7692 11.0769H6V8.61536Z" fill="#FF843F"/>
<path class="hw_svgicon__fill" d="M8 6.15387H17.7692C18.449 6.15387 19 6.7049 19 7.38464V7.38464C19 8.06437 18.449 8.61541 17.7692 8.61541H8V6.15387Z" fill="#FF843F"/>
<path class="hw_svgicon__fill" d="M6.60442 4.32666C7.22195 4.1324 7.81222 3.80387 8.34309 3.35897L9.10795 2.71796L10.0488 1.83377C10.9946 0.944899 12.3274 1.35614 12.6353 2.63187V2.63187C12.8553 3.54334 12.452 4.56576 11.689 5.03073L11.1838 5.33861L9.90828 6.23955L7.73293 8.12689L6.48341 4.59307C6.44585 4.48683 6.50429 4.35815 6.60442 4.32666V4.32666Z" fill="#FF843F"/>
<path class="hw_svgicon__fill" d="M7 11.0769H11.7692C12.449 11.0769 13 11.6279 13 12.3077V12.3077C13 12.9874 12.449 13.5384 11.7692 13.5384H7V11.0769Z" fill="#FF843F"/>
<path class="hw_svgicon__fill" d="M7 13.5385H10.7692C11.449 13.5385 12 14.0895 12 14.7692V14.7692C12 15.449 11.449 16 10.7692 16H7V13.5385Z" fill="#FF843F"/>
<path class="hw_svgicon__fill" d="M0 6.27523C0 5.01097 1.2461 4.12366 2.44081 4.53722V4.53722C3.16113 4.78656 3.94603 4.77564 4.65913 4.50636L5.45184 4.20701C5.81629 4.06939 6.19409 3.97015 6.57913 3.91092L8 3.69232V16H6.70972C6.09847 16 5.49724 15.8446 4.96252 15.5485L4.74112 15.4259C3.98656 15.0079 3.08996 14.9304 2.27486 15.2126V15.2126C1.16138 15.598 0 14.771 0 13.5927V6.27523Z" fill="#FF843F"/>
<rect class="hw_svgicon__fill" x="22" y="2.46155" width="2" height="11.0769" rx="0.40741" fill="#FF843F"/>
<rect class="hw_svgicon__fill" x="20.5928" y="6.03998" width="2.03705" height="3.50999" rx="0.40741" fill="#FF843F"/>
</svg>
