<svg width="19" height="21" viewBox="0 0 19 21" fill="none" xmlns="http://www.w3.org/2000/svg">
<path class="hw_svgicon__fill" d="M3 1.26788C3 0.621364 3.60426 0.144771 4.23299 0.295404L8.8425 1.39977C9.87101 1.64618 10.942 1.65634 11.975 1.42947L13.3064 1.13708C14.06 0.971562 14.8358 0.931792 15.6024 1.01937L18.1135 1.30625C18.6186 1.36395 19 1.79142 19 2.29979V9.51258C19 10.1098 18.4799 10.5739 17.8865 10.5061L15.6024 10.2452C14.8358 10.1576 14.06 10.1974 13.3064 10.3629L11.975 10.6553C10.942 10.8821 9.87101 10.872 8.8425 10.6256L3.76701 9.40957C3.3172 9.3018 3 8.89962 3 8.43709V1.26788Z" fill="#FF843F"/>
<rect class="hw_svgicon__fill" width="2" height="21" rx="1" fill="#FF843F"/>
</svg>
