<svg width="84" height="95" viewBox="0 0 84 95" fill="none" xmlns="http://www.w3.org/2000/svg">
<path class="hw_svgicon__fill" d="M49.2601 12.4619L54.9465 6.67641C55.1876 6.43114 55.5955 6.67543 55.4931 7.00373L52.2098 17.5261L49.5519 26.0444C48.8938 28.1534 49.1154 30.4388 50.1664 32.382L57.9874 46.8427C58.0678 46.9914 58.1765 47.1228 58.3073 47.2298V47.2298C59.4022 48.125 58.4771 49.8771 57.1203 49.4777L40.1837 44.4929C38.5014 43.9977 37.2154 42.6358 36.8175 40.9279L35.4098 34.8857C34.8425 32.4505 35.4183 29.8895 36.9734 27.9315L49.2601 12.4619Z" fill="#FF843F"/>
<path class="hw_svgicon__fill" d="M35.4543 5.15749C35.6166 4.65493 35.9887 4.24578 36.4553 4.05693V4.05693C37.4379 3.65925 38.4213 4.36345 38.4073 5.45477L38.156 25.1426C38.1271 27.4124 38.9583 29.522 40.4619 30.9948L51.6473 41.9508C51.7623 42.0634 51.8987 42.149 52.0489 42.2028V42.2028C53.3065 42.6533 52.9296 44.6801 51.5652 44.804L34.5715 46.3469C32.881 46.5004 31.3199 45.6748 30.4849 44.1857L27.4267 38.7318C26.2923 36.7087 26.0806 34.184 26.8466 31.8121L35.4543 5.15749Z" fill="#FF843F"/>
<path class="hw_svgicon__fill" d="M55.7394 19.0923C55.9336 18.8637 56.2184 18.7319 56.5183 18.7319V18.7319C56.6577 18.7319 56.7562 18.8683 56.7123 19.0006L54.6444 25.2432L53.1416 32.0379C53.0131 32.6189 52.9483 33.2121 52.9483 33.8071V35.8136C52.9483 37.4132 53.4166 38.9779 54.2954 40.3145L56.5917 43.8069C56.7285 44.0149 56.8013 44.2583 56.8013 44.5072V44.5072C56.8013 45.6127 55.4904 46.1941 54.671 45.4521L48.1735 39.5679L47.887 39.2466C45.1659 36.1957 45.1105 31.6057 47.7571 28.4899L55.7394 19.0923Z" fill="#FF843F"/>
<path class="hw_svgicon__fill" d="M67.2443 41.2305C67.4384 41.0019 67.7232 40.8701 68.0232 40.8701V40.8701C68.1625 40.8701 68.261 41.0065 68.2172 41.1388L66.1493 47.3813L64.7412 53.7478C64.5505 54.6103 64.5005 55.4981 64.5932 56.3766L65.4303 64.3105V64.3105C65.4303 65.6722 63.7453 66.3099 62.8438 65.2893L59.6784 61.706L59.3919 61.3848C56.6708 58.3338 56.6154 53.7439 59.2619 50.6281L67.2443 41.2305Z" fill="#FF843F"/>
<path class="hw_svgicon__fill" d="M62.523 31.7724C62.5415 31.7606 62.563 31.7544 62.5849 31.7544V31.7544C62.6751 31.7545 62.7304 31.8533 62.6832 31.9302L58.9973 37.9386C58.3437 39.004 57.9978 40.2296 57.9978 41.4796V42.941C57.9978 44.4568 58.4183 45.9428 59.2125 47.2338L64.1848 55.3161C64.214 55.3635 64.2522 55.4046 64.2974 55.437V55.437C64.7073 55.7317 64.3441 56.3663 63.8824 56.1621L53.8809 51.7384C53.6722 51.6461 53.4864 51.509 53.3367 51.3368L52.4995 50.374C50.3641 47.9184 50.1182 44.3437 51.8972 41.6187L54.3896 37.8011C55.0301 36.82 55.8735 35.9878 56.8631 35.3604L62.523 31.7724Z" fill="#FF843F"/>
<path class="hw_svgicon__fill" d="M20.8223 25.5994C20.6674 25.3763 20.413 25.2433 20.1414 25.2433V25.2433C20.0329 25.2433 19.9537 25.3457 19.9809 25.4507L21.7759 32.3746L22.7744 38.143C23.0703 39.8526 22.8158 41.612 22.0476 43.1677L17.5174 52.3414C17.4913 52.3944 17.4552 52.4419 17.4112 52.4813V52.4813C17.0007 52.8489 17.4608 53.4976 17.9434 53.2317L27.0124 48.2344C27.2167 48.1218 27.4427 48.0541 27.6752 48.0357L28.2731 47.9884C31.6762 47.7194 33.5046 43.8601 31.5573 41.0562L20.8223 25.5994Z" fill="#FF843F"/>
<path class="hw_svgicon__fill" d="M26.9145 20.8424C26.8196 20.5795 26.6 20.3816 26.3225 20.3087V20.3087C26.2059 20.2781 26.0866 20.3661 26.0836 20.4849L25.9152 27.304L25.0756 34.4118C24.9967 35.0796 24.8331 35.7389 24.5884 36.3747L21.0873 45.4725C20.9337 45.8718 20.8723 46.2954 20.9077 46.7124L21.0821 48.7651C21.2469 50.7052 23.8358 51.2647 24.9796 49.6073V49.6073C25.1044 49.4266 25.2006 49.2295 25.265 49.023L26.3648 45.4959C26.8219 44.0301 27.7681 42.735 29.0504 41.8203V41.8203C31.6078 39.9959 32.6756 36.7913 31.6615 33.9839L26.9145 20.8424Z" fill="#FF843F"/>
<path class="hw_svgicon__fill" d="M14.7395 33.0777C14.7206 33.0641 14.6979 33.0568 14.6746 33.0568V33.0568C14.5908 33.0568 14.5374 33.1463 14.5772 33.2201L18.5029 40.4992C18.776 41.0057 18.995 41.5395 19.1563 42.0918L19.4572 43.1222C19.8963 44.626 19.882 46.2259 19.4161 47.7216L19.0971 48.7461C18.9762 49.1343 18.9381 49.5435 18.9852 49.9473L19.3946 53.4519C19.6106 55.3017 22.1048 55.7298 22.9253 54.0579V54.0579C22.9793 53.9481 23.0438 53.8438 23.1182 53.7465L24.0114 52.5781C26.0159 49.9559 26.2512 46.387 24.6082 43.5244L22.2271 39.3757C21.6472 38.3653 20.8584 37.4902 19.9135 36.8088L14.7395 33.0777Z" fill="#FF843F"/>
<path class="hw_svgicon__fill" d="M14.7829 43.1032C14.6793 42.9451 14.4946 42.8586 14.3088 42.881V42.881C14.0064 42.9176 13.8203 43.2209 13.9235 43.5092L17.0911 52.3599C17.4083 53.2463 17.5705 54.1765 17.5705 55.1097L17.5705 62.9155C17.5705 62.9764 17.5544 63.0358 17.5239 63.0878V63.0878C17.3218 63.4317 17.778 63.7976 18.0706 63.5263L21.5704 60.282C21.7752 60.0921 21.8914 59.8258 21.8923 59.5441L21.9023 56.4457C21.9076 54.8352 21.4327 53.2471 20.5375 51.8815L14.7829 43.1032Z" fill="#FF843F"/>
<path class="hw_svgicon__fill_b" d="M47.7197 32.1499L48.2461 31.3968C48.5552 30.9544 49.2619 31.2837 49.1326 31.8099L48.3907 34.8291C47.9159 36.7615 48.1762 38.8174 49.1223 40.6064L51.1311 44.4047C51.1446 44.4303 51.1624 44.4535 51.1836 44.4734V44.4734C51.4053 44.6811 51.1523 45.0247 50.8885 44.8741L46.6586 42.4595C46.5473 42.396 46.4514 42.3085 46.3782 42.2036L45.8316 41.421C44.7587 39.885 44.6292 37.902 45.4964 36.288L47.7197 32.1499Z" fill="#382A3A"/>
<path class="hw_svgicon__stroke hw_svgicon__fill_b" d="M30.4411 32.7003L30.1497 33.404C30.0734 33.5881 30.0342 33.7834 30.0342 33.9789L30.0342 38.0977C30.0342 39.0548 29.856 40.0115 29.5082 40.9214L29.246 41.6073C28.6479 43.1722 27.5386 44.5199 26.0943 45.4364C25.8762 45.5748 25.6029 45.4071 25.6438 45.16L26.6048 39.3541L28.5208 32.1557C28.5754 31.9507 28.6948 31.765 28.8617 31.6256C29.6775 30.9445 30.8405 31.7358 30.4411 32.7003Z" fill="#382A3A" stroke="#FF843F" stroke-width="0.327702"/>
<path class="hw_svgicon__stroke hw_svgicon__fill_b" d="M38.2377 29.5837L40.03 29.0664C40.2295 29.0088 40.4256 29.1449 40.4341 29.347L40.6129 33.6024C40.6351 34.1286 40.6039 34.6576 40.5198 35.1816L39.8211 39.535C39.7249 40.1342 39.3156 40.6503 38.7449 40.8921L37.9977 41.2086C36.8073 41.7129 35.6553 40.5477 36.1989 39.389C36.3933 38.9746 36.4171 38.5075 36.2651 38.0885L35.2293 35.2326C34.8806 34.2709 34.9036 33.2043 35.2942 32.2315C35.8075 30.953 36.9007 29.9696 38.2377 29.5837Z" fill="#382A3A" stroke="#FF843F" stroke-width="0.327702"/>
<path class="hw_svgicon__fill" d="M7.20313 52.0843C7.24841 51.8742 7.27069 51.6591 7.26956 51.443C7.26461 50.4887 6.80558 49.5803 6.03125 48.9926L5.79737 48.8151C5.0346 48.2361 4.52248 47.3903 4.37054 46.4584L4.31348 46.1084L6.00513 46.7779C6.53217 46.9865 7.02914 47.2665 7.48152 47.6099L8.57776 48.442C9.13933 48.8682 9.51638 49.491 9.62824 50.177L9.66824 50.4224C9.77175 51.0572 10.1568 51.62 10.7167 51.9546C12.4679 53.0012 11.9844 55.6136 9.99004 55.8803L9.58444 55.9345C7.9932 56.1473 6.63921 54.7017 6.97405 53.1476L7.20313 52.0843Z" fill="#FF843F"/>
<path class="hw_svgicon__stroke" d="M7.20313 52.0843C7.24841 51.8742 7.27069 51.6591 7.26956 51.443C7.26461 50.4887 6.80558 49.5803 6.03125 48.9926L5.79737 48.8151C5.0346 48.2361 4.52248 47.3903 4.37054 46.4584L4.31348 46.1084L6.00513 46.7779C6.53217 46.9865 7.02914 47.2665 7.48152 47.6099L8.57776 48.442C9.13933 48.8682 9.51638 49.491 9.62824 50.177L9.66824 50.4224C9.77175 51.0572 10.1568 51.62 10.7167 51.9546C12.4679 53.0012 11.9844 55.6136 9.99004 55.8803L9.58444 55.9345C7.9932 56.1473 6.63921 54.7017 6.97405 53.1476L7.20313 52.0843Z" stroke="#FF843F"/>
<path class="hw_svgicon__fill" d="M77.0533 52.4663C77.0612 52.1996 77.1086 51.9335 77.1944 51.6756C77.5571 50.5841 78.5601 49.7618 79.7608 49.5714L80.6216 49.4348C82.013 49.2142 83.2407 48.3974 83.9334 47.2317L84 47.1196L80.6278 46.8708C79.9615 46.8217 79.2873 46.8503 78.6209 46.9559L75.9935 47.3726C75.1051 47.5136 74.3211 48.0351 73.8787 48.7795L73.8316 48.8589C73.3661 49.6422 72.5032 50.1569 71.5613 50.2132C68.8485 50.3752 67.9336 53.7667 70.2925 54.9164L72.167 55.8299C74.3055 56.8721 76.968 55.3602 77.0357 53.0653L77.0533 52.4663Z" fill="#FF843F"/>
<path class="hw_svgicon__stroke" d="M77.0533 52.4663C77.0612 52.1996 77.1086 51.9335 77.1944 51.6756C77.5571 50.5841 78.5601 49.7618 79.7608 49.5714L80.6216 49.4348C82.013 49.2142 83.2407 48.3974 83.9334 47.2317L84 47.1196L80.6278 46.8708C79.9615 46.8217 79.2873 46.8503 78.6209 46.9559L75.9935 47.3726C75.1051 47.5136 74.3211 48.0351 73.8787 48.7795L73.8316 48.8589C73.3661 49.6422 72.5032 50.1569 71.5613 50.2132C68.8485 50.3752 67.9336 53.7667 70.2925 54.9164L72.167 55.8299C74.3055 56.8721 76.968 55.3602 77.0357 53.0653L77.0533 52.4663Z" stroke="#FF843F"/>
<path class="hw_svgicon__fill" d="M78.5939 60.8937L78.5941 59.3067L77.7309 58.4289C77.1597 57.8481 76.1192 57.9919 75.692 58.7108C75.4724 59.0803 75.0654 59.3231 74.6212 59.3496L74.0962 59.3809C71.8793 59.5133 71.1316 62.2849 73.0593 63.2244L74.5912 63.971C76.3387 64.8226 78.5145 63.5871 78.5698 61.7117L78.5939 60.8937Z" fill="#FF843F"/>
<path class="hw_svgicon__stroke" d="M78.5939 60.8937L78.5941 59.3067L77.7309 58.4289C77.1597 57.8481 76.1192 57.9919 75.692 58.7108C75.4724 59.0803 75.0654 59.3231 74.6212 59.3496L74.0962 59.3809C71.8793 59.5133 71.1316 62.2849 73.0593 63.2244L74.5912 63.971C76.3387 64.8226 78.5145 63.5871 78.5698 61.7117L78.5939 60.8937Z" stroke="#FF843F"/>
<path class="hw_svgicon__fill" d="M82.4172 55.2728L82.4172 54.6648L82.0865 54.3285C81.8677 54.106 81.4691 54.1611 81.3054 54.4365C81.2213 54.5781 81.0653 54.6711 80.8951 54.6813L80.694 54.6933C79.8447 54.744 79.5582 55.8058 80.2968 56.1658L80.8836 56.4518C81.5531 56.7781 82.3867 56.3047 82.4079 55.5862L82.4172 55.2728Z" fill="#FF843F"/>
<path class="hw_svgicon__stroke" d="M82.4172 55.2728L82.4172 54.6648L82.0865 54.3285C81.8677 54.106 81.4691 54.1611 81.3054 54.4365C81.2213 54.5781 81.0653 54.6711 80.8951 54.6813L80.694 54.6933C79.8447 54.744 79.5582 55.8058 80.2968 56.1658L80.8836 56.4518C81.5531 56.7781 82.3867 56.3047 82.4079 55.5862L82.4172 55.2728Z" stroke="#FF843F"/>
<path class="hw_svgicon__fill" d="M12.4464 67.405L12.4466 65.8181L11.5835 64.9403C11.0123 64.3594 9.97171 64.5033 9.54451 65.2222C9.32497 65.5916 8.91797 65.8344 8.4737 65.8609L7.94871 65.8923C5.73182 66.0247 4.98414 68.7963 6.91187 69.7358L8.44369 70.4823C10.1912 71.334 12.367 70.0984 12.4223 68.223L12.4464 67.405Z" fill="#FF843F"/>
<path class="hw_svgicon__stroke" d="M12.4464 67.405L12.4466 65.8181L11.5835 64.9403C11.0123 64.3594 9.97171 64.5033 9.54451 65.2222C9.32497 65.5916 8.91797 65.8344 8.4737 65.8609L7.94871 65.8923C5.73182 66.0247 4.98414 68.7963 6.91187 69.7358L8.44369 70.4823C10.1912 71.334 12.367 70.0984 12.4223 68.223L12.4464 67.405Z" stroke="#FF843F"/>
<path class="hw_svgicon__fill" d="M13.3967 59.1794L13.3967 58.5715L13.066 58.2352C12.8472 58.0126 12.4485 58.0677 12.2849 58.3432C12.2008 58.4847 12.0448 58.5777 11.8746 58.5879L11.6735 58.5999C10.8242 58.6506 10.5377 59.7125 11.2763 60.0724L11.8631 60.3584C12.5326 60.6847 13.3662 60.2113 13.3874 59.4928L13.3967 59.1794Z" fill="#FF843F"/>
<path class="hw_svgicon__stroke" d="M13.3967 59.1794L13.3967 58.5715L13.066 58.2352C12.8472 58.0126 12.4485 58.0677 12.2849 58.3432C12.2008 58.4847 12.0448 58.5777 11.8746 58.5879L11.6735 58.5999C10.8242 58.6506 10.5377 59.7125 11.2763 60.0724L11.8631 60.3584C12.5326 60.6847 13.3662 60.2113 13.3874 59.4928L13.3967 59.1794Z" stroke="#FF843F"/>
<path class="hw_svgicon__stroke" d="M64.927 67.5662C64.927 78.2366 55.2422 87.5614 42.4208 87.5614C29.5994 87.5614 19.9146 78.2366 19.9146 67.5662C19.9146 56.8957 29.5994 47.5709 42.4208 47.5709C55.2422 47.5709 64.927 56.8957 64.927 67.5662Z" stroke="#FF843F" stroke-width="8.19254"/>
<path class="hw_svgicon__stroke_b" d="M56.0972 68.2174C56.0972 69.3325 55.7185 71.2646 54.7399 73.7752C53.7948 76.1997 52.429 78.8082 50.8097 81.1873C49.1759 83.5878 47.4115 85.5678 45.7451 86.8875C44.0098 88.2618 42.8907 88.5275 42.4194 88.5275C41.7785 88.5275 40.6471 88.2372 39.0536 87.0538C37.4891 85.892 35.827 84.1173 34.2664 81.8729C31.131 77.3632 29.068 71.9354 28.7429 68.0179C28.7956 63.8049 30.5202 60.9138 32.9146 58.9594C35.488 56.8589 39.019 55.7207 42.4194 55.7207C45.8199 55.7207 49.3508 56.8589 51.9242 58.9594C54.3562 60.9445 56.0972 63.896 56.0972 68.2174Z" stroke="#382A3A" stroke-width="11.4696"/>
<path class="hw_svgicon__fill" d="M46.5593 82.0196C46.4934 81.6829 46.4558 81.3362 46.447 80.9828L46.4441 80.8677C46.3945 78.8934 47.0822 76.8287 48.378 75.0616L48.4382 74.9795C49.5623 73.4464 50.2473 71.6885 50.4 69.9444L50.4941 68.87L48.4412 70.5956C47.4084 71.4637 46.4797 72.4558 45.684 73.5408L44.5015 75.1536C43.5799 76.4103 43.0184 77.8514 42.8932 79.2812L42.8179 80.1406C42.718 81.2816 42.2061 82.427 41.3782 83.362L40.3859 84.4827C37.8434 87.3542 39.3455 91.2917 42.8439 90.9256C45.5325 90.6443 47.7053 87.8728 47.2121 85.3537L46.5593 82.0196Z" fill="#FF843F"/>
<path class="hw_svgicon__stroke" d="M46.5593 82.0196C46.4934 81.6829 46.4558 81.3362 46.447 80.9828L46.4441 80.8677C46.3945 78.8934 47.0822 76.8287 48.378 75.0616L48.4382 74.9795C49.5623 73.4464 50.2473 71.6885 50.4 69.9444L50.4941 68.87L48.4412 70.5956C47.4084 71.4637 46.4797 72.4558 45.684 73.5408L44.5015 75.1536C43.5799 76.4103 43.0184 77.8514 42.8932 79.2812L42.8179 80.1406C42.718 81.2816 42.2061 82.427 41.3782 83.362L40.3859 84.4827C37.8434 87.3542 39.3455 91.2917 42.8439 90.9256C45.5325 90.6443 47.7053 87.8728 47.2121 85.3537L46.5593 82.0196Z" stroke="#FF843F"/>
<path class="hw_svgicon__fill" d="M39.4404 71.2226L39.4582 70.292C39.4947 68.381 39.0888 66.5926 38.2757 65.0823C37.5818 63.7935 37.1831 62.2998 37.1051 60.6963L37.04 59.361L37.9495 60.2356C38.7968 61.0503 39.5172 62.0043 40.0934 63.0745L40.3616 63.5726C41.1228 64.9866 41.5602 66.6254 41.6459 68.3846L41.6913 69.3185C41.7313 70.1402 41.6362 70.9945 41.4101 71.8447L40.5664 75.0166C40.5378 75.1244 40.4695 75.2238 40.3787 75.2901C40.1601 75.4496 39.9047 75.3599 39.8771 75.1139L39.4404 71.2226Z" fill="#FF843F"/>
<path class="hw_svgicon__stroke" d="M39.4404 71.2226L39.4582 70.292C39.4947 68.381 39.0888 66.5926 38.2757 65.0823C37.5818 63.7935 37.1831 62.2998 37.1051 60.6963L37.04 59.361L37.9495 60.2356C38.7968 61.0503 39.5172 62.0043 40.0934 63.0745L40.3616 63.5726C41.1228 64.9866 41.5602 66.6254 41.6459 68.3846L41.6913 69.3185C41.7313 70.1402 41.6362 70.9945 41.4101 71.8447L40.5664 75.0166C40.5378 75.1244 40.4695 75.2238 40.3787 75.2901C40.1601 75.4496 39.9047 75.3599 39.8771 75.1139L39.4404 71.2226Z" stroke="#FF843F"/>
<path class="hw_svgicon__fill" d="M45.169 63.456C45.1713 63.3366 45.1652 63.2193 45.1506 63.1049L45.0941 62.6617C44.9191 61.2894 45.1096 59.8083 45.6455 58.3741C46.1018 57.153 46.3087 55.895 46.2504 54.6968L46.2041 53.7461L45.4899 54.8529C44.9091 55.7531 44.4283 56.7083 44.0603 57.6929L43.8489 58.2588C43.3578 59.5731 43.1351 60.9271 43.1979 62.2166L43.2275 62.8258C43.2595 63.483 43.4105 64.1001 43.6724 64.6448L44.5503 66.4701C44.5851 66.5425 44.6509 66.5883 44.7312 66.5959C44.9192 66.6138 45.111 66.424 45.1151 66.2161L45.169 63.456Z" fill="#FF843F"/>
<path class="hw_svgicon__stroke" d="M45.169 63.456C45.1713 63.3366 45.1652 63.2193 45.1506 63.1049L45.0941 62.6617C44.9191 61.2894 45.1096 59.8083 45.6455 58.3741C46.1018 57.153 46.3087 55.895 46.2504 54.6968L46.2041 53.7461L45.4899 54.8529C44.9091 55.7531 44.4283 56.7083 44.0603 57.6929L43.8489 58.2588C43.3578 59.5731 43.1351 60.9271 43.1979 62.2166L43.2275 62.8258C43.2595 63.483 43.4105 64.1001 43.6724 64.6448L44.5503 66.4701C44.5851 66.5425 44.6509 66.5883 44.7312 66.5959C44.9192 66.6138 45.111 66.424 45.1151 66.2161L45.169 63.456Z" stroke="#FF843F"/>
<path class="hw_svgicon__fill" d="M19.0383 86.7199L19.1845 85.5216L18.5855 84.718C18.2198 84.2273 17.4416 84.2267 17.0541 84.7168C16.8509 84.9739 16.5188 85.1121 16.1834 85.0793L15.7907 85.0408C14.1365 84.8789 13.2796 86.8813 14.6117 87.7958L15.756 88.5813C16.9772 89.4196 18.7362 88.7052 18.9526 87.2831L19.0383 86.7199Z" fill="#FF843F"/>
<path class="hw_svgicon__stroke" d="M19.0383 86.7199L19.1845 85.5216L18.5855 84.718C18.2198 84.2273 17.4416 84.2267 17.0541 84.7168C16.8509 84.9739 16.5188 85.1121 16.1834 85.0793L15.7907 85.0408C14.1365 84.8789 13.2796 86.8813 14.6117 87.7958L15.756 88.5813C16.9772 89.4196 18.7362 88.7052 18.9526 87.2831L19.0383 86.7199Z" stroke="#FF843F"/>
<path class="hw_svgicon__fill" d="M15.296 81.3796L15.8278 81.3296L16.1533 80.838C16.3041 80.6101 16.2047 80.2206 15.9547 80.0602C15.8139 79.9699 15.7114 79.7969 15.6895 79.6128L15.6645 79.4029C15.5605 78.5286 14.5888 78.1969 14.3656 78.9596L14.1185 79.804C13.9057 80.5313 14.4765 81.4251 15.1306 81.3888L15.296 81.3796Z" fill="#FF843F"/>
<path class="hw_svgicon__stroke" d="M15.296 81.3796L15.8278 81.3296L16.1533 80.838C16.3041 80.6101 16.2047 80.2206 15.9547 80.0602C15.8139 79.9699 15.7114 79.7969 15.6895 79.6128L15.6645 79.4029C15.5605 78.5286 14.5888 78.1969 14.3656 78.9596L14.1185 79.804C13.9057 80.5313 14.4765 81.4251 15.1306 81.3888L15.296 81.3796Z" stroke="#FF843F"/>
<path class="hw_svgicon__fill" d="M35.3169 78.8659L35.0276 79.8164L35.4282 80.6355C35.6455 81.0797 36.2583 81.1998 36.6417 80.8732C36.849 80.6967 37.1431 80.6412 37.4084 80.7285L37.7151 80.8295C39.0017 81.2532 40.0303 79.788 39.1132 78.838L38.2324 77.9255C37.3774 77.0397 35.8284 77.3509 35.4454 78.4854L35.3169 78.8659Z" fill="#FF843F"/>
<path class="hw_svgicon__stroke" d="M35.3169 78.8659L35.0276 79.8164L35.4282 80.6355C35.6455 81.0797 36.2583 81.1998 36.6417 80.8732C36.849 80.6967 37.1431 80.6412 37.4084 80.7285L37.7151 80.8295C39.0017 81.2532 40.0303 79.788 39.1132 78.838L38.2324 77.9255C37.3774 77.0397 35.8284 77.3509 35.4454 78.4854L35.3169 78.8659Z" stroke="#FF843F"/>
</svg>
