<svg width="16" height="22" viewBox="0 0 16 22" fill="none" xmlns="http://www.w3.org/2000/svg">
<rect class="hw_svgicon__fill" y="9.90002" width="16" height="12.1" rx="2" fill="#FF843F"/>
<path class="hw_svgicon__fill" d="M12.5713 0.5C12.5713 0.223858 12.7951 0 13.0713 0H14.357C14.6331 0 14.857 0.223858 14.857 0.5V2.75V4.36239C14.857 4.58282 14.5925 4.69537 14.4336 4.54251L12.7246 2.89752C12.6266 2.80326 12.5713 2.6732 12.5713 2.53727V0.5Z" fill="#FF843F"/>
<path class="hw_svgicon__fill" d="M6.55985 0.327327C6.74937 0.118852 7.01805 0 7.29979 0H8.70077C8.98251 0 9.25118 0.118853 9.44071 0.327327L15.6225 7.12733C16.2065 7.7697 15.7507 8.8 14.8826 8.8H1.11797C0.249831 8.8 -0.205942 7.7697 0.378033 7.12733L6.55985 0.327327Z" fill="#FF843F"/>
</svg>
