<svg width="47" height="47" viewBox="0 0 47 47" fill="none" xmlns="http://www.w3.org/2000/svg">
<g clip-path="url(#clip0_6961_1150)" filter="url(#filter0_d_6961_1150)">
<path class="hw_svgicon__fill" d="M23.5097 0.295441C15.4908 0.295441 13.1455 0.303713 12.6896 0.341532C11.044 0.478327 10.02 0.737441 8.90439 1.2929C8.04464 1.71983 7.3666 2.21471 6.69741 2.90844C5.4787 4.17358 4.74008 5.73003 4.47271 7.58017C4.34271 8.47835 4.30489 8.66153 4.29721 13.2494C4.29426 14.7786 4.29721 16.7913 4.29721 19.4908C4.29721 27.5036 4.30607 29.8465 4.34448 30.3015C4.47743 31.9029 4.72856 32.9104 5.26036 34.0124C6.2767 36.122 8.21777 37.7056 10.5045 38.2965C11.2963 38.5004 12.1708 38.6126 13.2935 38.6658C13.7692 38.6865 18.6175 38.7013 23.4687 38.7013C28.3199 38.7013 33.1711 38.6954 33.635 38.6717C34.9349 38.6106 35.6898 38.5092 36.5244 38.2936C38.8259 37.6997 40.7316 36.1397 41.7686 34.0006C42.29 32.9251 42.5545 31.8792 42.6741 30.3615C42.7001 30.0306 42.711 24.7546 42.711 19.4858C42.711 14.2161 42.6992 8.9499 42.6732 8.61899C42.5521 7.07671 42.2877 6.03967 41.7494 4.94353C41.3077 4.04624 40.8172 3.37615 40.1052 2.69099C38.8345 1.47726 37.2805 0.738623 35.4286 0.471532C34.5313 0.341827 34.3526 0.303418 29.7614 0.295441H23.5097Z" fill="url(#paint0_radial_6961_1150)"/>
<path class="hw_svgicon__fill" d="M23.5097 0.295441C15.4908 0.295441 13.1455 0.303713 12.6896 0.341532C11.044 0.478327 10.02 0.737441 8.90439 1.2929C8.04464 1.71983 7.3666 2.21471 6.69741 2.90844C5.4787 4.17358 4.74008 5.73003 4.47271 7.58017C4.34271 8.47835 4.30489 8.66153 4.29721 13.2494C4.29426 14.7786 4.29721 16.7913 4.29721 19.4908C4.29721 27.5036 4.30607 29.8465 4.34448 30.3015C4.47743 31.9029 4.72856 32.9104 5.26036 34.0124C6.2767 36.122 8.21777 37.7056 10.5045 38.2965C11.2963 38.5004 12.1708 38.6126 13.2935 38.6658C13.7692 38.6865 18.6175 38.7013 23.4687 38.7013C28.3199 38.7013 33.1711 38.6954 33.635 38.6717C34.9349 38.6106 35.6898 38.5092 36.5244 38.2936C38.8259 37.6997 40.7316 36.1397 41.7686 34.0006C42.29 32.9251 42.5545 31.8792 42.6741 30.3615C42.7001 30.0306 42.711 24.7546 42.711 19.4858C42.711 14.2161 42.6992 8.9499 42.6732 8.61899C42.5521 7.07671 42.2877 6.03967 41.7494 4.94353C41.3077 4.04624 40.8172 3.37615 40.1052 2.69099C38.8345 1.47726 37.2805 0.738623 35.4286 0.471532C34.5313 0.341827 34.3526 0.303418 29.7614 0.295441H23.5097Z" fill="url(#paint1_radial_6961_1150)"/>
<path class="hw_svgicon__fill" d="M23.5009 5.31818C19.6495 5.31818 19.1662 5.33502 17.6535 5.40386C16.1437 5.47299 15.1132 5.71202 14.2115 6.06272C13.2788 6.42495 12.4876 6.90949 11.6994 7.69806C10.9105 8.48634 10.426 9.27756 10.0626 10.21C9.71101 11.112 9.4717 12.1429 9.40374 13.6521C9.33609 15.1648 9.31836 15.6484 9.31836 19.5C9.31836 23.3515 9.3355 23.8334 9.40404 25.3462C9.47347 26.8559 9.71248 27.8865 10.0629 28.7882C10.4254 29.7209 10.9099 30.5122 11.6985 31.3004C12.4864 32.0893 13.2776 32.575 14.2098 32.9373C15.112 33.288 16.1429 33.527 17.6523 33.5961C19.165 33.665 19.648 33.6818 23.4992 33.6818C27.3509 33.6818 27.8328 33.665 29.3454 33.5961C30.8552 33.527 31.8869 33.288 32.7891 32.9373C33.7216 32.575 34.5116 32.0893 35.2996 31.3004C36.0884 30.5122 36.5729 29.7209 36.9363 28.7885C37.2849 27.8865 37.5243 26.8556 37.5952 25.3464C37.6631 23.8337 37.6808 23.3515 37.6808 19.5C37.6808 15.6484 37.6631 15.1651 37.5952 13.6524C37.5243 12.1426 37.2849 11.112 36.9363 10.2103C36.5729 9.27756 36.0884 8.48634 35.2996 7.69806C34.5107 6.9092 33.7219 6.42465 32.7883 6.06272C31.8842 5.71202 30.8531 5.47299 29.3434 5.40386C27.8307 5.33502 27.3491 5.31818 23.4965 5.31818H23.5009ZM22.2287 7.87386C22.6063 7.87327 23.0276 7.87386 23.5009 7.87386C27.2874 7.87386 27.7361 7.88745 29.2314 7.9554C30.6141 8.01863 31.3645 8.24968 31.8644 8.44379C32.5262 8.70084 32.998 9.00811 33.4941 9.50447C33.9904 10.0008 34.2977 10.4736 34.5553 11.1354C34.7494 11.6347 34.9808 12.3852 35.0437 13.7679C35.1116 15.2629 35.1264 15.712 35.1264 19.4967C35.1264 23.2815 35.1116 23.7306 35.0437 25.2256C34.9805 26.6083 34.7494 27.3588 34.5553 27.8581C34.2983 28.5199 33.9904 28.9912 33.4941 29.4872C32.9977 29.9836 32.5265 30.2909 31.8644 30.5479C31.3651 30.7429 30.6141 30.9734 29.2314 31.0366C27.7364 31.1046 27.2874 31.1193 23.5009 31.1193C19.7142 31.1193 19.2654 31.1046 17.7705 31.0366C16.3878 30.9728 15.6373 30.7417 15.1372 30.5476C14.4754 30.2906 14.0026 29.9833 13.5063 29.4869C13.01 28.9906 12.7027 28.519 12.4451 27.8569C12.251 27.3576 12.0196 26.6072 11.9567 25.2244C11.8887 23.7294 11.8751 23.2803 11.8751 19.4932C11.8751 15.7061 11.8887 15.2593 11.9567 13.7643C12.0199 12.3816 12.251 11.6312 12.4451 11.1312C12.7021 10.4694 13.01 9.9967 13.5063 9.50033C14.0026 9.00397 14.4754 8.6967 15.1372 8.43906C15.6371 8.24406 16.3878 8.01361 17.7705 7.95009C19.0787 7.89099 19.5857 7.87327 22.2287 7.87031V7.87386ZM31.0708 10.2286C30.1313 10.2286 29.3691 10.99 29.3691 11.9299C29.3691 12.8694 30.1313 13.6317 31.0708 13.6317C32.0104 13.6317 32.7726 12.8694 32.7726 11.9299C32.7726 10.9903 32.0104 10.228 31.0708 10.228V10.2286ZM23.5009 12.217C19.479 12.217 16.2182 15.478 16.2182 19.5C16.2182 23.522 19.479 26.7815 23.5009 26.7815C27.5228 26.7815 30.7825 23.522 30.7825 19.5C30.7825 15.478 27.5228 12.217 23.5009 12.217ZM23.5009 14.7727C26.1115 14.7727 28.2281 16.8891 28.2281 19.5C28.2281 22.1106 26.1115 24.2273 23.5009 24.2273C20.8901 24.2273 18.7738 22.1106 18.7738 19.5C18.7738 16.8891 20.8901 14.7727 23.5009 14.7727Z" fill="white"/>
</g>
<defs>
<filter id="filter0_d_6961_1150" x="0" y="0" width="47" height="47" filterUnits="userSpaceOnUse" color-interpolation-filters="sRGB">
<feFlood flood-opacity="0" result="BackgroundImageFix"/>
<feColorMatrix in="SourceAlpha" type="matrix" values="0 0 0 0 0 0 0 0 0 0 0 0 0 0 0 0 0 0 127 0" result="hardAlpha"/>
<feOffset dy="4"/>
<feGaussianBlur stdDeviation="2"/>
<feComposite in2="hardAlpha" operator="out"/>
<feColorMatrix type="matrix" values="0 0 0 0 0 0 0 0 0 0 0 0 0 0 0 0 0 0 0.25 0"/>
<feBlend mode="normal" in2="BackgroundImageFix" result="effect1_dropShadow_6961_1150"/>
<feBlend mode="normal" in="SourceGraphic" in2="effect1_dropShadow_6961_1150" result="shape"/>
</filter>
<radialGradient id="paint0_radial_6961_1150" cx="0" cy="0" r="1" gradientUnits="userSpaceOnUse" gradientTransform="translate(14.5 41.6593) rotate(-90) scale(38.063 35.4102)">
<stop stop-color="#FFDD55"/>
<stop offset="0.1" stop-color="#FFDD55"/>
<stop offset="0.5" stop-color="#FF543E"/>
<stop offset="1" stop-color="#C837AB"/>
</radialGradient>
<radialGradient id="paint1_radial_6961_1150" cx="0" cy="0" r="1" gradientUnits="userSpaceOnUse" gradientTransform="translate(-2.13884 3.06213) rotate(78.678) scale(17.0145 70.1501)">
<stop stop-color="#3771C8"/>
<stop offset="0.128" stop-color="#3771C8"/>
<stop offset="1" stop-color="#6600FF" stop-opacity="0"/>
</radialGradient>
<clipPath id="clip0_6961_1150">
<rect class="hw_svgicon__fill" width="39" height="39" fill="white" transform="translate(4)"/>
</clipPath>
</defs>
</svg>
