<svg width="65" height="26" viewBox="0 0 65 26" fill="none" xmlns="http://www.w3.org/2000/svg">
<path class="hw_svgicon__fill" d="M27.1348 4.53984C27.1348 2.03256 29.1673 0 31.6746 0H59.8216C62.3289 0 64.3615 2.03256 64.3615 4.53984V4.53984L45.9751 13.6195L27.1348 4.53984V4.53984Z" fill="#FF843F"/>
<path class="hw_svgicon__fill" d="M27.1348 21.3512C27.1348 21.0578 27.2771 20.7825 27.5166 20.6128L37.592 13.4761C37.8624 13.2846 38.2156 13.2555 38.5136 13.4003L45.5726 16.8289C45.8264 16.9522 46.123 16.9505 46.3753 16.8243L53.2005 13.4117C53.5031 13.2604 53.8647 13.2899 54.1388 13.4882L63.9865 20.6121C64.222 20.7824 64.3615 21.0555 64.3615 21.3461V21.3461C64.3615 23.5978 62.5361 25.4232 60.2844 25.4232H31.2067C28.9578 25.4232 27.1348 23.6001 27.1348 21.3512V21.3512Z" fill="#FF843F"/>
<path class="hw_svgicon__fill" d="M27.1348 8.03331C27.1348 7.68761 27.5058 7.46876 27.8083 7.63597L35.1729 11.7058C35.4542 11.8613 35.4893 12.2518 35.2402 12.455L27.8757 18.4629C27.5792 18.7048 27.1348 18.4938 27.1348 18.1111V8.03331Z" fill="#FF843F"/>
<path class="hw_svgicon__fill" d="M56.2556 12.455C56.0065 12.2518 56.0417 11.8613 56.323 11.7058L63.6875 7.63597C63.9901 7.46876 64.361 7.68761 64.361 8.03331V18.1111C64.361 18.4938 63.9166 18.7048 63.6201 18.4629L56.2556 12.455Z" fill="#FF843F"/>
<rect class="hw_svgicon__fill" width="23" height="2" rx="0.453984" transform="matrix(-1 0 0 1 23 4)" fill="#FF843F"/>
<rect class="hw_svgicon__fill" width="16" height="2" rx="0.453984" transform="matrix(-1 0 0 1 23 11)" fill="#FF843F"/>
<rect class="hw_svgicon__fill" width="21" height="2" rx="0.453984" transform="matrix(-1 0 0 1 23 18)" fill="#FF843F"/>
</svg>
