<svg width="25" height="17" viewBox="0 0 25 17" fill="none" xmlns="http://www.w3.org/2000/svg">
<path class="hw_svgicon__fill" d="M0 2.99216C0 1.33964 1.33964 0 2.99216 0H21.5436C23.1961 0 24.5357 1.33964 24.5357 2.99216V2.99216L12.4175 8.97648L0 2.99216V2.99216Z" fill="#FF843F"/>
<path class="hw_svgicon__fill" d="M0 14.0723C0 13.8789 0.093817 13.6975 0.251666 13.5857L6.89228 8.88189C7.07046 8.75568 7.30324 8.73653 7.49964 8.83193L12.1522 11.0917C12.3194 11.173 12.5149 11.1718 12.6813 11.0887L17.1797 8.83948C17.3791 8.73977 17.6174 8.75919 17.7981 8.88987L24.2886 13.5851C24.4438 13.6974 24.5357 13.8774 24.5357 14.069V14.069C24.5357 15.553 23.3326 16.7561 21.8486 16.7561H2.68375C1.20156 16.7561 0 15.5545 0 14.0723V14.0723Z" fill="#FF843F"/>
<path class="hw_svgicon__fill" d="M0 5.29464C0 5.06679 0.244518 4.92254 0.443943 5.03275L5.29782 7.71516C5.48322 7.81762 5.50637 8.07499 5.34223 8.20889L0.488358 12.1686C0.292917 12.3281 0 12.189 0 11.9368V5.29464Z" fill="#FF843F"/>
<path class="hw_svgicon__fill" d="M19.1935 8.20889C19.0293 8.07499 19.0525 7.81762 19.2379 7.71516L24.0917 5.03275C24.2912 4.92254 24.5357 5.06679 24.5357 5.29464V11.9368C24.5357 12.189 24.2428 12.3281 24.0473 12.1686L19.1935 8.20889Z" fill="#FF843F"/>
</svg>
