<svg width="35" height="38" viewBox="0 0 35 38" fill="none" xmlns="http://www.w3.org/2000/svg">
<path class="hw_svgicon__fill" d="M3.11949 7.40967C2.76971 7.40967 2.4754 7.52389 2.3278 7.74776C2.17483 7.97913 2.19853 8.27679 2.3609 8.57778L6.28626 14.9115C6.29297 14.9236 6.29297 14.9311 6.28626 14.9424L0.117767 25.0886C-0.0432554 25.3875 -0.0352043 25.6876 0.117767 25.9186C0.265371 26.1412 0.527032 26.2875 0.876361 26.2875H6.68211C7.55029 26.2875 7.9685 25.7414 8.26549 25.242C8.26549 25.242 14.2985 15.2976 14.5333 14.9115C14.5096 14.8757 10.5417 8.42437 10.5417 8.42437C10.2528 7.94453 9.81578 7.40967 8.92524 7.40967H3.11949Z" fill="#382A3A"/>
<path class="hw_svgicon__fill" d="M27.5108 0C26.6439 0 26.2678 0.509018 25.9565 1.03054C25.9565 1.03054 13.4491 21.7039 13.0371 22.383C13.0581 22.4201 21.2868 36.4892 21.2868 36.4892C21.5744 36.9686 22.019 37.5198 22.9087 37.5198H28.7082C29.0579 37.5198 29.3308 37.3968 29.4788 37.1742C29.6331 36.9428 29.6291 36.638 29.4668 36.3379L21.2815 22.4001C21.2734 22.3889 21.2734 22.3755 21.2815 22.3647L34.136 1.18062C34.297 0.881714 34.301 0.576554 34.148 0.345599C34.0004 0.122981 33.7258 0 33.376 0H27.5108Z" fill="#382A3A"/>
</svg>
