<svg width="43" height="43" viewBox="0 0 43 43" fill="none" xmlns="http://www.w3.org/2000/svg">
<path  d="M21.195 0C12.3493 0 9.76212 0.00912495 9.25921 0.0508436C7.44393 0.201744 6.31434 0.487576 5.08369 1.10031C4.13529 1.57126 3.38733 2.11717 2.64914 2.88244C1.30476 4.27803 0.489982 5.99497 0.195043 8.03589C0.0516379 9.02668 0.00991822 9.22875 0.00144631 14.2897C-0.00180788 15.9766 0.00144631 18.1968 0.00144631 21.1747C0.00144631 30.0137 0.0112197 32.5982 0.0535903 33.1001C0.200249 34.8666 0.477274 35.978 1.06391 37.1937C2.18505 39.5208 4.32627 41.2677 6.8488 41.9195C7.72224 42.1444 8.68691 42.2682 9.92538 42.3269C10.4501 42.3497 15.7984 42.366 21.1498 42.366C26.5012 42.366 31.8526 42.3595 32.3644 42.3334C33.7983 42.266 34.6311 42.1541 35.5517 41.9163C38.0905 41.2612 40.1927 39.5403 41.3367 37.1806C41.9118 35.9942 42.2036 34.8405 42.3355 33.1663C42.3642 32.8013 42.3762 26.9812 42.3762 21.1692C42.3762 15.3561 42.3632 9.54686 42.3345 9.18182C42.201 7.48051 41.9093 6.33654 41.3155 5.12737C40.8282 4.13756 40.2872 3.39837 39.5017 2.64256C38.1 1.30368 36.3858 0.48888 34.3429 0.194248C33.3531 0.051169 33.156 0.00879954 28.0914 0H21.195Z" fill="url(#paint0_radial_8661_3708)"/>
<path class="hw_svgicon__fill" d="M21.186 5.54053C16.9374 5.54053 16.4043 5.5591 14.7356 5.63504C13.0701 5.7113 11.9334 5.97498 10.9387 6.36184C9.90983 6.76142 9.03705 7.29592 8.16757 8.16581C7.29733 9.03537 6.76287 9.90818 6.362 10.9368C5.97415 11.9318 5.71017 13.069 5.6352 14.7338C5.56057 16.4025 5.54102 16.9359 5.54102 21.1847C5.54102 25.4333 5.55992 25.9649 5.63553 27.6337C5.71212 29.2991 5.97577 30.436 6.36233 31.4306C6.76221 32.4595 7.29667 33.3324 8.16658 34.2019C9.03572 35.0721 9.90851 35.6079 10.9368 36.0076C11.9321 36.3944 13.0693 36.6581 14.7343 36.7343C16.403 36.8103 16.9358 36.8288 21.1841 36.8288C25.433 36.8288 25.9646 36.8103 27.6331 36.7343C29.2986 36.6581 30.4367 36.3944 31.4319 36.0076C32.4606 35.6079 33.332 35.0721 34.2013 34.2019C35.0714 33.3324 35.6059 32.4595 36.0068 31.431C36.3913 30.436 36.6554 29.2988 36.7336 27.6339C36.8085 25.9653 36.828 25.4333 36.828 21.1847C36.828 16.9359 36.8085 16.4028 36.7336 14.7341C36.6554 13.0686 36.3913 11.9318 36.0068 10.9371C35.6059 9.90818 35.0714 9.03537 34.2013 8.16581C33.331 7.2956 32.4609 6.76109 31.431 6.36184C30.4337 5.97498 29.2963 5.7113 27.6309 5.63504C25.9622 5.5591 25.431 5.54053 21.1811 5.54053H21.186ZM19.7826 8.35973C20.1991 8.35908 20.6639 8.35973 21.186 8.35973C25.3629 8.35973 25.8579 8.37473 27.5074 8.44968C29.0326 8.51943 29.8604 8.77431 30.4119 8.98843C31.1419 9.27199 31.6624 9.61094 32.2096 10.1585C32.7571 10.706 33.0961 11.2275 33.3802 11.9576C33.5944 12.5084 33.8496 13.3363 33.919 14.8615C33.9939 16.5107 34.0102 17.0061 34.0102 21.1811C34.0102 25.3561 33.9939 25.8515 33.919 27.5007C33.8493 29.026 33.5944 29.8538 33.3802 30.4046C33.0967 31.1347 32.7571 31.6546 32.2096 32.2017C31.662 32.7493 31.1422 33.0883 30.4119 33.3718C29.8611 33.5869 29.0326 33.8412 27.5074 33.9109C25.8582 33.9859 25.3629 34.0021 21.186 34.0021C17.0088 34.0021 16.5137 33.9859 14.8647 33.9109C13.3394 33.8405 12.5115 33.5856 11.9599 33.3715C11.2298 33.088 10.7083 32.749 10.1608 32.2014C9.61332 31.6539 9.27433 31.1337 8.99017 30.4033C8.77605 29.8525 8.52079 29.0247 8.45141 27.4994C8.37639 25.8502 8.36139 25.3548 8.36139 21.1772C8.36139 16.9996 8.37639 16.5067 8.45141 14.8576C8.52112 13.3323 8.77605 12.5045 8.99017 11.953C9.27367 11.2229 9.61332 10.7015 10.1608 10.1539C10.7083 9.60637 11.2298 9.26742 11.9599 8.98321C12.5113 8.76811 13.3394 8.51389 14.8647 8.44382C16.3078 8.37863 16.8671 8.35908 19.7826 8.35582V8.35973ZM29.5364 10.9573C28.5001 10.9573 27.6593 11.7972 27.6593 12.834C27.6593 13.8704 28.5001 14.7113 29.5364 14.7113C30.5729 14.7113 31.4137 13.8704 31.4137 12.834C31.4137 11.7975 30.5729 10.9573 29.5364 10.9573ZM21.186 13.1507C16.7494 13.1507 13.1523 16.748 13.1523 21.1847C13.1523 25.6214 16.7494 29.217 21.186 29.217C25.6226 29.217 29.2184 25.6214 29.2184 21.1847C29.2184 16.748 25.6226 13.1507 21.186 13.1507ZM21.186 15.9699C24.0658 15.9699 26.4006 18.3046 26.4006 21.1847C26.4006 24.0645 24.0658 26.3994 21.186 26.3994C18.306 26.3994 15.9714 24.0645 15.9714 21.1847C15.9714 18.3046 18.306 15.9699 21.186 15.9699Z" fill="#FF843F"/>
</svg>
