<svg width="48" height="37" viewBox="0 0 48 37" fill="none" xmlns="http://www.w3.org/2000/svg">
<path class="hw_svgicon__fill" d="M46.5151 4.19141C45.7675 4.50045 44.9987 4.76132 44.2133 4.97315C45.1432 3.99292 45.8522 2.83959 46.285 1.57752C46.382 1.29464 46.2814 0.984996 46.0319 0.799936C45.7827 0.614789 45.4366 0.592609 45.1622 0.744141C43.4942 1.66624 41.6945 2.32894 39.8075 2.71639C37.9066 0.985257 35.325 0 32.656 0C27.0223 0 22.4389 4.27181 22.4389 9.52247C22.4389 9.936 22.467 10.3473 22.5226 10.7528C15.5317 10.1808 9.03241 6.97815 4.56939 1.87556C4.41035 1.6937 4.16531 1.59563 3.91443 1.61443C3.66344 1.63271 3.43784 1.76466 3.31105 1.96748C2.40584 3.41513 1.9273 5.07088 1.9273 6.75557C1.9273 9.05011 2.8062 11.2271 4.35885 12.9282C3.88672 12.7758 3.42864 12.5854 2.99137 12.3592C2.75666 12.2374 2.47016 12.2393 2.23694 12.3639C2.00362 12.4885 1.8573 12.7177 1.85108 12.9683C1.84996 13.0105 1.84996 13.0527 1.84996 13.0955C1.84996 16.5204 3.8277 19.6039 6.85147 21.2845C6.59166 21.2604 6.33212 21.2253 6.07417 21.1794C5.80822 21.132 5.53484 21.2189 5.35553 21.4079C5.17593 21.5968 5.11644 21.8601 5.19927 22.1005C6.31846 25.3574 9.20001 27.7528 12.6835 28.4832C9.79428 30.1699 6.49024 31.0533 3.02177 31.0533C2.29801 31.0533 1.57016 31.0137 0.85784 30.9352C0.503956 30.8959 0.165595 31.0907 0.0450309 31.4044C-0.0755333 31.7182 0.0522815 32.068 0.353274 32.2479C4.80913 34.9108 9.96132 36.3182 15.2527 36.3182C25.6547 36.3182 32.162 31.7464 35.7891 27.911C40.3121 23.1287 42.906 16.7987 42.906 10.5442C42.906 10.2829 42.9017 10.0191 42.8931 9.75605C44.6776 8.50299 46.2139 6.98647 47.464 5.24347C47.6539 4.97878 47.6334 4.62885 47.4134 4.38522C47.1939 4.14116 46.8277 4.06232 46.5151 4.19141Z" fill="#382A3A"/>
</svg>
