<svg width="40" height="37" viewBox="0 0 40 37" fill="none" xmlns="http://www.w3.org/2000/svg">
<path class="hw_svgicon__fill" d="M0 29.3117L1.19924 27.8595C1.98526 26.9077 2.86015 26.033 3.81205 25.2471L4.06823 25.0355C4.68844 24.5235 5.34818 24.0613 6.04129 23.6533V23.6533C7.24614 22.9441 8.54279 22.404 9.89481 22.048L10.6849 21.8401C12.4432 21.3772 14.2538 21.1429 16.072 21.1429H18.8095L16.6667 33.6364H0V29.3117Z" fill="#FF843F"/>
<ellipse class="hw_svgicon__fill" cx="16.6681" cy="8.64935" rx="8.57143" ry="8.64935" fill="#FF843F"/>
<path class="hw_svgicon__fill" d="M40.0013 27.1496C40.0013 28.1018 39.2366 28.8735 38.2924 28.8735H31.9477V35.2761C31.9477 36.2286 31.1826 37.0003 30.2391 37C29.7672 37 29.3401 36.8073 29.0312 36.4955C28.7219 36.1832 28.5307 35.7524 28.531 35.2765L28.5307 28.8733H22.1852C21.7137 28.8733 21.2869 28.6806 20.9774 28.3683C20.6686 28.0567 20.4775 27.6257 20.4775 27.1496C20.4773 26.1975 21.2421 25.4256 22.1861 25.4256H28.531V19.023C28.531 18.0707 29.2962 17.2987 30.2398 17.2987C31.1831 17.299 31.9476 18.0702 31.9481 19.0224V25.4256H38.2936C39.2371 25.4262 40.0009 26.1975 40.0013 27.1496Z" fill="#FF843F"/>
</svg>
