<svg width="33" height="23" viewBox="0 0 33 23" fill="none" xmlns="http://www.w3.org/2000/svg">
<path class="hw_svgicon__stroke" d="M24.2318 12.4978L25.3209 12.1483V18.3008C25.3209 19.4431 24.5454 20.4397 23.4381 20.7203L22.8126 20.8788C18.4717 21.9789 13.925 21.9789 9.58408 20.8788L8.9586 20.7203C7.85128 20.4397 7.07578 19.4431 7.07578 18.3008V12.392L7.94399 12.2853L14.4193 14.918C15.5561 15.3802 16.8269 15.389 17.97 14.9427L24.2318 12.4978Z" stroke="#FF843F" stroke-width="2.3"/>
<path class="hw_svgicon__stroke" d="M1.29568 9.0508L15.1461 1.64717C15.9233 1.23171 16.8569 1.23171 17.6341 1.64716L31.4845 9.0508C31.4879 9.0526 31.4904 9.05413 31.4921 9.05531C31.4926 9.05784 31.4928 9.06124 31.4926 9.0652C31.4925 9.06657 31.4924 9.06787 31.4922 9.06908C31.4919 9.07137 31.4915 9.07336 31.491 9.07497C31.4891 9.07594 31.4865 9.07717 31.4829 9.07857L17.3575 14.6438C16.7359 14.8887 16.0443 14.8887 15.4227 14.6438L1.29729 9.07857C1.29374 9.07717 1.29109 9.07594 1.28919 9.07497C1.28849 9.07251 1.28784 9.06916 1.28761 9.0652C1.28738 9.06124 1.28764 9.05784 1.28805 9.05531C1.28982 9.05413 1.29232 9.0526 1.29568 9.0508Z" stroke="#FF843F" stroke-width="2.4"/>
<rect class="hw_svgicon__fill" x="14.5117" y="6.43665" width="3.52641" height="3.52221" rx="1.76111" fill="#FF843F"/>
<rect class="hw_svgicon__fill" x="1.40039" y="19" width="3" height="3" rx="1.5" fill="#FF843F"/>
<path class="hw_svgicon__fill" d="M2.99532 12.8399C2.91918 12.7848 2.93172 12.6679 3.01782 12.6302L14.8133 7.47242L15.5977 8.99994L4.59766 13.9999L2.99532 12.8399Z" fill="#FF843F"/>
<path class="hw_svgicon__fill" d="M4.59766 14C4.45694 14.0468 4.35525 14.1698 4.33567 14.3168L3.59027 19.913L2.21038 19.913L2.81139 12.8594C2.81896 12.7706 2.87445 12.6931 2.95604 12.6574L5.59766 11.5L4.59766 14V14Z" fill="#FF843F"/>
</svg>
