<svg width="320" height="184" viewBox="0 0 320 184" fill="none" xmlns="http://www.w3.org/2000/svg">
<g filter="url(#filter0_d_10464_3887)">
<mask id="path-1-inside-1_10464_3887" fill="white">
<rect x="-14" y="7" width="350" height="170" rx="5.42381"/>
</mask>
<rect x="-14" y="7" width="350" height="170" rx="5.42381" fill="#303030"/>
<rect x="-14" y="7" width="350" height="170" rx="5.42381" stroke="white" stroke-width="43.3904" mask="url(#path-1-inside-1_10464_3887)"/>
</g>
<rect x="316.852" y="28.6952" width="6.19864" height="127.072" fill="white"/>
<rect x="7.69519" y="10.8741" width="38.7415" height="13.9469" rx="2.32449" fill="#303030"/>
<rect x="52.6353" y="10.8741" width="38.7415" height="13.9469" rx="2.32449" fill="#303030"/>
<rect x="97.5754" y="10.8741" width="38.7415" height="13.9469" rx="2.32449" fill="#303030"/>
<rect x="142.516" y="10.8741" width="38.7415" height="13.9469" rx="2.32449" fill="#303030"/>
<rect x="187.456" y="10.8741" width="38.7415" height="13.9469" rx="2.32449" fill="#303030"/>
<rect x="232.396" y="10.8741" width="38.7415" height="13.9469" rx="2.32449" fill="#303030"/>
<rect x="277.336" y="10.8741" width="38.7415" height="13.9469" rx="2.32449" fill="#303030"/>
<rect x="7.69519" y="159.641" width="38.7415" height="13.9469" rx="2.32449" fill="#303030"/>
<rect x="52.6353" y="159.641" width="38.7415" height="13.9469" rx="2.32449" fill="#303030"/>
<rect x="97.5754" y="159.641" width="38.7415" height="13.9469" rx="2.32449" fill="#303030"/>
<rect x="142.516" y="159.641" width="38.7415" height="13.9469" rx="2.32449" fill="#303030"/>
<rect x="187.456" y="159.641" width="38.7415" height="13.9469" rx="2.32449" fill="#303030"/>
<rect x="232.396" y="159.641" width="38.7415" height="13.9469" rx="2.32449" fill="#303030"/>
<rect x="277.336" y="159.641" width="38.7415" height="13.9469" rx="2.32449" fill="#303030"/>
<defs>
<filter id="filter0_d_10464_3887" x="-20.1986" y="0.801365" width="362.397" height="182.397" filterUnits="userSpaceOnUse" color-interpolation-filters="sRGB">
<feFlood flood-opacity="0" result="BackgroundImageFix"/>
<feColorMatrix in="SourceAlpha" type="matrix" values="0 0 0 0 0 0 0 0 0 0 0 0 0 0 0 0 0 0 127 0" result="hardAlpha"/>
<feMorphology radius="3.09932" operator="dilate" in="SourceAlpha" result="effect1_dropShadow_10464_3887"/>
<feOffset/>
<feGaussianBlur stdDeviation="1.54966"/>
<feComposite in2="hardAlpha" operator="out"/>
<feColorMatrix type="matrix" values="0 0 0 0 0 0 0 0 0 0 0 0 0 0 0 0 0 0 0.25 0"/>
<feBlend mode="normal" in2="BackgroundImageFix" result="effect1_dropShadow_10464_3887"/>
<feBlend mode="normal" in="SourceGraphic" in2="effect1_dropShadow_10464_3887" result="shape"/>
</filter>
</defs>
</svg>
