<svg width="41" height="34" viewBox="0 0 41 34" fill="none" xmlns="http://www.w3.org/2000/svg">
<path class="hw_svgicon__fill" d="M40.0045 4.54803C39.3728 4.82818 38.7233 5.06467 38.0596 5.2567C38.8453 4.36809 39.4444 3.32257 39.81 2.17847C39.892 1.92204 39.8071 1.64134 39.5963 1.47357C39.3857 1.30573 39.0932 1.28563 38.8614 1.42299C37.452 2.2589 35.9315 2.85965 34.3371 3.21088C32.7311 1.64157 30.5498 0.748413 28.2947 0.748413C23.5347 0.748413 19.6621 4.62092 19.6621 9.38076C19.6621 9.75564 19.6858 10.1285 19.7328 10.4961C13.8261 9.97751 8.33475 7.07428 4.56388 2.44865C4.4295 2.2838 4.22247 2.19489 4.01049 2.21193C3.79843 2.2285 3.60781 2.34812 3.50068 2.53198C2.73586 3.84431 2.33153 5.34529 2.33153 6.87251C2.33153 8.95256 3.07413 10.926 4.38599 12.4682C3.98708 12.33 3.60003 12.1574 3.23058 11.9523C3.03227 11.8419 2.79021 11.8436 2.59315 11.9566C2.39601 12.0696 2.27239 12.2773 2.26713 12.5045C2.26619 12.5427 2.26619 12.581 2.26619 12.6198C2.26619 15.7245 3.93721 18.5199 6.49204 20.0434C6.27252 20.0215 6.05324 19.9897 5.83529 19.948C5.61059 19.9051 5.3796 19.9838 5.22809 20.1552C5.07635 20.3264 5.02609 20.5651 5.09607 20.7831C6.04169 23.7355 8.47636 25.907 11.4197 26.5691C8.97847 28.0981 6.18683 28.899 3.25626 28.899C2.64475 28.899 2.02978 28.8631 1.42793 28.7919C1.12893 28.7563 0.843039 28.9329 0.741172 29.2173C0.639306 29.5017 0.747298 29.8189 1.00161 29.9819C4.76644 32.3959 9.1196 33.6718 13.5903 33.6718C22.3792 33.6718 27.8774 29.5273 30.9419 26.0504C34.7634 21.7151 36.9551 15.9768 36.9551 10.307C36.9551 10.0701 36.9515 9.83096 36.9442 9.59251C38.4519 8.45658 39.75 7.08182 40.8062 5.50174C40.9667 5.2618 40.9493 4.94458 40.7634 4.72373C40.578 4.50248 40.2686 4.43101 40.0045 4.54803Z" fill="#73A1FB"/>
</svg>
