<svg width="30" height="35" viewBox="0 0 30 35" fill="none" xmlns="http://www.w3.org/2000/svg">
<path class="hw_svgicon__fill" d="M2.80758 7.5202C2.51205 7.5202 2.26338 7.62375 2.13867 7.82669C2.00942 8.03644 2.02945 8.30627 2.16663 8.57913L5.48324 14.3208C5.48891 14.3318 5.48891 14.3386 5.48324 14.3488L0.271378 23.5466C0.135328 23.8175 0.14213 24.0896 0.271378 24.299C0.396091 24.5008 0.617173 24.6334 0.912326 24.6334H5.8177C6.55123 24.6334 6.90459 24.1384 7.15552 23.6856C7.15552 23.6856 12.2529 14.6708 12.4513 14.3208C12.4313 14.2883 9.07875 8.44005 9.07875 8.44005C8.83461 8.00507 8.46539 7.5202 7.71295 7.5202H2.80758Z" fill="#005A5F"/>
<path class="hw_svgicon__fill" d="M23.4156 0.803101C22.6832 0.803101 22.3653 1.26454 22.1023 1.73731C22.1023 1.73731 11.5346 20.4782 11.1865 21.0939C11.2043 21.1275 18.1568 33.8815 18.1568 33.8815C18.3998 34.3161 18.7755 34.8157 19.5272 34.8157H24.4272C24.7228 34.8157 24.9533 34.7042 25.0784 34.5024C25.2088 34.2926 25.2054 34.0164 25.0682 33.7443L18.1523 21.1094C18.1455 21.0992 18.1455 21.0871 18.1523 21.0772L29.0133 1.87336C29.1493 1.6024 29.1527 1.32576 29.0235 1.11639C28.8988 0.914586 28.6667 0.803101 28.3712 0.803101H23.4156Z" fill="#D4D600"/>
</svg>
