<svg width="19" height="18" viewBox="0 0 19 18" fill="none" xmlns="http://www.w3.org/2000/svg">
<path class="hw_svgicon__fill" d="M5.728 8.769C5.734 8.769 5.8 8.667 5.926 8.463C5.944 8.463 5.977 8.424 6.025 8.346C6.079 8.292 6.106 8.238 6.106 8.184L6.25 7.986C6.25 7.962 6.286 7.908 6.358 7.824C6.436 7.674 6.541 7.509 6.673 7.329C6.745 7.221 6.793 7.149 6.817 7.113C6.847 7.071 6.868 7.038 6.88 7.014C6.898 6.99 6.916 6.969 6.934 6.951H6.862L6.682 6.969C6.658 6.969 6.622 6.975 6.574 6.987C6.106 7.113 5.821 7.173 5.719 7.167C5.617 7.161 5.533 7.176 5.467 7.212C5.365 7.212 5.239 7.227 5.089 7.257C4.837 7.257 4.663 7.2 4.567 7.086L4.477 6.969L4.351 6.726C4.333 6.66 4.336 6.555 4.36 6.411C4.384 6.351 4.435 6.303 4.513 6.267C4.597 6.225 4.696 6.204 4.81 6.204C4.996 6.204 5.224 6.195 5.494 6.177C5.764 6.159 6.061 6.144 6.385 6.132C6.739 6.132 7.252 6.078 7.924 5.97C7.984 5.964 8.059 5.988 8.149 6.042C8.239 6.096 8.308 6.156 8.356 6.222C8.392 6.312 8.434 6.39 8.482 6.456C8.554 6.63 8.5 6.822 8.32 7.032L8.104 7.221C8.098 7.221 8.059 7.281 7.987 7.401C7.501 8.079 7.237 8.439 7.195 8.481C7.183 8.505 7.15 8.559 7.096 8.643C7.048 8.721 7.012 8.781 6.988 8.823L6.682 9.192C6.682 9.222 6.655 9.285 6.601 9.381L6.547 9.417L6.277 9.786L6.025 10.155L5.863 10.362L5.755 10.542C5.755 10.578 5.719 10.647 5.647 10.749C5.581 10.851 5.524 10.944 5.476 11.028C5.434 11.106 5.392 11.178 5.35 11.244L5.575 11.208L5.989 11.1C6.073 11.1 6.181 11.073 6.313 11.019C6.373 11.019 6.424 11.016 6.466 11.01C6.478 10.998 6.535 10.989 6.637 10.983C6.655 10.971 6.736 10.953 6.88 10.929C7.024 10.905 7.114 10.893 7.15 10.893C7.228 10.893 7.366 10.878 7.564 10.848C7.732 10.836 7.84 10.854 7.888 10.902C8.026 11.04 8.05 11.22 7.96 11.442C7.96 11.454 7.936 11.472 7.888 11.496C7.54 11.61 7.333 11.676 7.267 11.694C7.111 11.724 6.982 11.763 6.88 11.811C6.856 11.811 6.82 11.823 6.772 11.847C6.67 11.895 6.535 11.94 6.367 11.982C6.013 12.084 5.803 12.144 5.737 12.162C5.677 12.186 5.554 12.222 5.368 12.27C5.188 12.324 5.038 12.357 4.918 12.369C4.798 12.381 4.648 12.324 4.468 12.198C4.42 12.168 4.39 12.141 4.378 12.117L4.27 11.955C4.12 11.745 4.111 11.538 4.243 11.334C4.243 11.322 4.258 11.292 4.288 11.244L4.513 10.713L4.549 10.542C4.549 10.518 4.582 10.467 4.648 10.389C4.672 10.335 4.702 10.281 4.738 10.227C4.774 10.173 4.792 10.143 4.792 10.137C4.87 10.017 4.945 9.927 5.017 9.867L5.134 9.687L5.251 9.543C5.251 9.495 5.332 9.384 5.494 9.21C5.506 9.18 5.557 9.105 5.647 8.985L5.728 8.769ZM11.3178 7.05C11.3358 7.128 11.3208 7.182 11.2728 7.212C11.2248 7.236 11.1738 7.248 11.1198 7.248C11.0718 7.248 10.9398 7.254 10.7238 7.266C10.5858 7.296 10.4478 7.335 10.3098 7.383H10.3008C10.3008 7.491 10.2708 7.65 10.2108 7.86C10.2108 7.932 10.1958 8.049 10.1658 8.211C10.1658 8.259 10.1568 8.307 10.1388 8.355C10.1208 8.403 10.1118 8.478 10.1118 8.58C10.0698 8.826 10.0518 8.961 10.0578 8.985C10.0638 9.009 10.0638 9.042 10.0578 9.084C10.0518 9.126 10.0398 9.189 10.0218 9.273C10.0038 9.357 9.99484 9.456 9.99484 9.57C9.99484 9.684 9.97984 9.786 9.94984 9.876V9.975C9.96184 10.191 9.95284 10.344 9.92284 10.434C9.89884 10.524 9.88684 10.602 9.88684 10.668C9.88684 10.728 9.87184 10.824 9.84184 10.956C9.81184 11.088 9.80284 11.244 9.81484 11.424H9.86884C10.0188 11.412 10.0968 11.409 10.1028 11.415C10.1148 11.415 10.1568 11.406 10.2288 11.388L10.3728 11.397H10.4628C10.4808 11.397 10.5198 11.421 10.5798 11.469C10.6398 11.511 10.6818 11.553 10.7058 11.595C10.7478 11.637 10.7598 11.679 10.7418 11.721C10.7298 11.757 10.6638 11.82 10.5438 11.91L10.3728 11.964C10.3548 11.982 10.3128 12.003 10.2468 12.027C10.1808 12.051 10.1238 12.063 10.0758 12.063C9.93784 12.093 9.85684 12.144 9.83284 12.216C9.80884 12.264 9.66484 12.282 9.40084 12.27H9.09484L8.92384 12.324C8.77384 12.384 8.64184 12.399 8.52784 12.369C8.41384 12.339 8.33584 12.315 8.29384 12.297C8.25784 12.285 8.21284 12.255 8.15884 12.207C8.10484 12.165 8.08084 12.114 8.08684 12.054C8.09884 12 8.11984 11.919 8.14984 11.811C8.25184 11.727 8.32384 11.673 8.36584 11.649C8.65384 11.559 8.83684 11.499 8.91484 11.469C8.91484 11.271 8.90884 11.154 8.89684 11.118C8.91484 11.112 8.93584 10.983 8.95984 10.731C8.96584 10.707 8.95084 10.65 8.91484 10.56V10.506C8.93284 10.338 8.92984 10.185 8.90584 10.047C8.90584 10.041 8.91784 9.936 8.94184 9.732C8.97184 9.696 8.97184 9.6 8.94184 9.444C8.96584 9.33 8.98684 9.24 9.00484 9.174L9.01384 9.048C9.01384 9.012 9.03184 8.904 9.06784 8.724V8.634L9.08584 8.562C9.19384 8.118 9.26584 7.794 9.30184 7.59C9.25384 7.602 9.22384 7.608 9.21184 7.608L8.91484 7.653C8.68684 7.713 8.48584 7.662 8.31184 7.5C8.16184 7.296 8.15884 7.122 8.30284 6.978C8.39284 6.9 8.53084 6.846 8.71684 6.816C8.87884 6.762 8.98384 6.723 9.03184 6.699C9.09184 6.699 9.23284 6.633 9.45484 6.501C9.67684 6.471 9.80584 6.456 9.84184 6.456L10.2648 6.402C10.3188 6.396 10.3908 6.402 10.4808 6.42C10.5708 6.432 10.6248 6.45 10.6428 6.474C10.7208 6.492 10.8168 6.528 10.9308 6.582L11.1468 6.78C11.2308 6.9 11.2878 6.99 11.3178 7.05ZM12.5048 7.824C12.5108 7.89 12.5138 7.944 12.5138 7.986L12.5228 8.148L12.5858 9.543L12.5768 9.696C12.5888 9.708 12.6098 9.714 12.6398 9.714C12.7598 9.714 12.8678 9.687 12.9638 9.633C12.9818 9.603 13.0238 9.573 13.0898 9.543C13.1138 9.519 13.1408 9.501 13.1708 9.489C13.1708 9.477 13.2008 9.456 13.2608 9.426C13.2968 9.378 13.3388 9.339 13.3868 9.309C13.4348 9.273 13.4618 9.249 13.4678 9.237C13.6118 9.051 13.7108 8.823 13.7648 8.553C13.7828 8.481 13.7918 8.412 13.7918 8.346C13.8038 8.28 13.8038 8.211 13.7918 8.139C13.7798 8.061 13.7738 7.977 13.7738 7.887C13.7558 7.761 13.7348 7.665 13.7108 7.599C13.6808 7.557 13.6598 7.503 13.6478 7.437C13.5638 7.287 13.4408 7.179 13.2788 7.113C13.2368 7.095 13.1768 7.089 13.0988 7.095L12.9998 7.077C12.8678 7.077 12.7268 7.092 12.5768 7.122C12.4268 7.152 12.3488 7.188 12.3428 7.23C12.3428 7.242 12.3518 7.251 12.3698 7.257C12.3998 7.257 12.4358 7.296 12.4778 7.374L12.5048 7.581V7.824ZM12.1628 6.285L12.4418 6.249C12.4778 6.249 12.5258 6.255 12.5858 6.267C12.6698 6.267 12.7658 6.276 12.8738 6.294C13.1438 6.294 13.3388 6.315 13.4588 6.357C13.5848 6.399 13.7258 6.438 13.8818 6.474C14.0378 6.51 14.2508 6.621 14.5208 6.807L14.6198 6.906C14.6318 6.906 14.6468 6.915 14.6648 6.933C14.6888 6.951 14.7068 6.963 14.7188 6.969C14.8328 7.173 14.8988 7.389 14.9168 7.617C14.9288 7.659 14.9318 7.698 14.9258 7.734V7.869C14.9438 7.917 14.9498 7.98 14.9438 8.058C14.9378 8.136 14.9288 8.187 14.9168 8.211C14.9168 8.277 14.9078 8.325 14.8898 8.355C14.8778 8.385 14.8718 8.409 14.8718 8.427C14.8718 8.439 14.8508 8.523 14.8088 8.679C14.7728 8.829 14.7458 8.925 14.7278 8.967C14.7098 9.009 14.6018 9.15 14.4038 9.39C14.2838 9.51 14.2088 9.594 14.1788 9.642L14.0618 9.831C13.7618 10.227 13.3178 10.407 12.7298 10.371C12.7178 10.365 12.6728 10.362 12.5948 10.362L12.6038 10.938L12.5948 11.397V11.55C12.5948 11.628 12.5888 11.691 12.5768 11.739C12.5708 11.787 12.5678 11.838 12.5678 11.892C12.5618 11.976 12.5528 12.027 12.5408 12.045C12.4928 12.153 12.4058 12.207 12.2798 12.207C12.0458 12.207 11.9168 12.192 11.8928 12.162C11.8868 12.162 11.8268 12.135 11.7128 12.081C11.6168 12.021 11.5538 11.943 11.5238 11.847C11.4638 11.661 11.4428 11.514 11.4608 11.406C11.4728 11.322 11.4728 11.136 11.4608 10.848C11.4428 10.8 11.4338 10.74 11.4338 10.668C11.4458 10.644 11.4518 10.59 11.4518 10.506V10.353C11.4878 10.041 11.5058 9.852 11.5058 9.786C11.5058 9.72 11.5118 9.675 11.5238 9.651C11.5358 9.621 11.5418 9.468 11.5418 9.192C11.5418 8.874 11.5238 8.607 11.4878 8.391L11.4788 8.256C11.4788 8.172 11.4728 8.088 11.4608 8.004V7.914L11.4338 7.536C11.4338 7.482 11.4248 7.44 11.4068 7.41C11.3888 7.398 11.3348 7.374 11.2448 7.338C11.1608 7.302 11.0888 7.26 11.0288 7.212C10.9748 7.164 10.9538 7.086 10.9658 6.978C10.9778 6.822 11.0678 6.702 11.2358 6.618C11.2298 6.618 11.2388 6.603 11.2628 6.573C11.2928 6.543 11.3378 6.516 11.3978 6.492C11.4638 6.462 11.5238 6.432 11.5778 6.402C11.7278 6.36 11.8358 6.339 11.9018 6.339C11.9738 6.339 12.0608 6.321 12.1628 6.285Z" fill="#FF843F"/>
<path class="hw_svgicon__fill" d="M5.728 8.769V8.269H5.3815L5.25984 8.59344L5.728 8.769ZM5.926 8.463V7.963H5.64714L5.5006 8.20025L5.926 8.463ZM6.025 8.346L5.67145 7.99245L5.62994 8.03396L5.59917 8.08395L6.025 8.346ZM6.106 8.184L5.70163 7.88991L5.606 8.02141V8.184H6.106ZM6.25 7.986L6.65437 8.28009L6.75 8.14859V7.986H6.25ZM6.358 7.824L6.73763 8.1494L6.77507 8.10572L6.80161 8.05468L6.358 7.824ZM6.673 7.329L7.0762 7.62468L7.08282 7.61566L7.08903 7.60635L6.673 7.329ZM6.817 7.113L6.41013 6.82238L6.40545 6.82894L6.40097 6.83565L6.817 7.113ZM6.88 7.014L6.48 6.714L6.45295 6.75007L6.43279 6.79039L6.88 7.014ZM6.934 6.951L7.28756 7.30455L8.1411 6.451H6.934V6.951ZM6.862 6.951V6.451H6.83706L6.81225 6.45348L6.862 6.951ZM6.682 6.969V7.469H6.70694L6.73175 7.46652L6.682 6.969ZM6.574 6.987L6.45271 6.50185L6.44401 6.50419L6.574 6.987ZM5.719 7.167L5.68964 7.66614L5.68964 7.66614L5.719 7.167ZM5.467 7.212V7.712H5.5945L5.70643 7.65095L5.467 7.212ZM5.089 7.257V7.757H5.13851L5.18706 7.74729L5.089 7.257ZM4.567 7.086L4.17069 7.39086L4.17743 7.39961L4.18454 7.40807L4.567 7.086ZM4.477 6.969L4.03312 7.19916L4.05358 7.23862L4.08069 7.27386L4.477 6.969ZM4.351 6.726L3.86862 6.85756L3.88262 6.90891L3.90712 6.95616L4.351 6.726ZM4.36 6.411L3.89576 6.2253L3.87569 6.27549L3.8668 6.3288L4.36 6.411ZM4.513 6.267L4.72253 6.72098L4.72962 6.71771L4.73661 6.71421L4.513 6.267ZM5.494 6.177L5.52726 6.67589L5.52726 6.67589L5.494 6.177ZM6.385 6.132V5.632H6.37574L6.36649 5.63234L6.385 6.132ZM7.924 5.97L7.87425 5.47248L7.8594 5.47397L7.84466 5.47633L7.924 5.97ZM8.149 6.042L8.40625 5.61325L8.40625 5.61325L8.149 6.042ZM8.356 6.222L8.82024 6.0363L8.79707 5.97837L8.76037 5.92791L8.356 6.222ZM8.482 6.456L8.94401 6.26482L8.9213 6.20994L8.88637 6.16191L8.482 6.456ZM8.32 7.032L8.64925 7.40829L8.67627 7.38465L8.69963 7.3574L8.32 7.032ZM8.104 7.221V7.721H8.29187L8.43325 7.59729L8.104 7.221ZM7.987 7.401L8.39338 7.6923L8.40526 7.67573L8.41575 7.65825L7.987 7.401ZM7.195 8.481L6.84145 8.12745L6.78407 8.18482L6.74779 8.25739L7.195 8.481ZM7.096 8.643L6.67533 8.37257L6.67017 8.38095L7.096 8.643ZM6.988 8.823L7.37288 9.14217L7.40059 9.10876L7.42212 9.07107L6.988 8.823ZM6.682 9.192L6.29712 8.87283L6.182 9.01165V9.192H6.682ZM6.601 9.381L6.87835 9.79702L6.97805 9.73056L7.03679 9.62613L6.601 9.381ZM6.547 9.417L6.26965 9.00098L6.19586 9.05017L6.14349 9.12174L6.547 9.417ZM6.277 9.786L5.87349 9.49074L5.86868 9.49731L5.8641 9.50402L6.277 9.786ZM6.025 10.155L6.41875 10.4632L6.42875 10.4504L6.4379 10.437L6.025 10.155ZM5.863 10.362L5.46925 10.0538L5.45018 10.0782L5.43425 10.1048L5.863 10.362ZM5.755 10.542L5.32625 10.2848L5.255 10.4035V10.542H5.755ZM5.647 10.749L5.23852 10.4607L5.2327 10.4689L5.22722 10.4774L5.647 10.749ZM5.476 11.028L5.04174 10.7799L5.03576 10.791L5.476 11.028ZM5.35 11.244L4.92817 10.9756L4.33141 11.9133L5.429 11.7377L5.35 11.244ZM5.575 11.208L5.654 11.7017L5.67784 11.6979L5.70121 11.6918L5.575 11.208ZM5.989 11.1V10.6H5.92486L5.86279 10.6162L5.989 11.1ZM6.313 11.019V10.519H6.21468L6.12368 10.5562L6.313 11.019ZM6.466 11.01L6.53671 11.505L6.7017 11.4814L6.81955 11.3636L6.466 11.01ZM6.637 10.983L6.66636 11.4821L6.80162 11.4742L6.91435 11.399L6.637 10.983ZM6.88 10.929L6.9622 11.4222L6.9622 11.4222L6.88 10.929ZM7.564 10.848L7.52838 10.3493L7.50865 10.3507L7.4891 10.3536L7.564 10.848ZM7.888 10.902L7.53445 11.2556L7.53445 11.2556L7.888 10.902ZM7.96 11.442L7.49663 11.2541L7.46 11.3445V11.442H7.96ZM7.888 11.496L8.04365 11.9712L8.07866 11.9597L8.11161 11.9432L7.888 11.496ZM7.267 11.694L7.36142 12.185L7.38016 12.1814L7.39856 12.1764L7.267 11.694ZM6.88 11.811V12.311H6.99177L7.0929 12.2634L6.88 11.811ZM6.772 11.847L6.98496 12.2995L6.99561 12.2942L6.772 11.847ZM6.367 11.982L6.24573 11.4969L6.23711 11.4991L6.22856 11.5015L6.367 11.982ZM5.737 12.162L5.60544 11.6796L5.57785 11.6871L5.5513 11.6978L5.737 12.162ZM5.368 12.27L5.24306 11.7859L5.23364 11.7883L5.22433 11.7911L5.368 12.27ZM4.468 12.198L4.75473 11.7884L4.74405 11.7809L4.733 11.774L4.468 12.198ZM4.378 12.117L4.82521 11.8934L4.81129 11.8656L4.79403 11.8396L4.378 12.117ZM4.27 11.955L4.68603 11.6776L4.68155 11.6709L4.67687 11.6644L4.27 11.955ZM4.243 11.334L4.66279 11.6056L4.743 11.4817V11.334H4.243ZM4.288 11.244L4.712 11.509L4.73295 11.4755L4.74838 11.4391L4.288 11.244ZM4.513 10.713L4.97338 10.9081L4.99229 10.8634L5.00227 10.816L4.513 10.713ZM4.549 10.542L5.03827 10.645L5.049 10.5941V10.542H4.549ZM4.648 10.389L5.02969 10.712L5.07587 10.6574L5.10491 10.5921L4.648 10.389ZM4.738 10.227L4.32197 9.94965L4.32197 9.94965L4.738 10.227ZM4.792 10.137L4.37278 9.86451L4.292 9.98878V10.137H4.792ZM5.017 9.867L5.33709 10.2511L5.39508 10.2028L5.43622 10.1395L5.017 9.867ZM5.134 9.687L4.74594 9.3717L4.72923 9.39228L4.71478 9.41451L5.134 9.687ZM5.251 9.543L5.63906 9.8583L5.751 9.72052V9.543H5.251ZM5.494 9.21L5.85995 9.55071L5.92357 9.48238L5.95824 9.39569L5.494 9.21ZM5.647 8.985L6.047 9.285L6.09 9.22767L6.11516 9.16056L5.647 8.985ZM5.728 9.269C5.88087 9.269 5.9848 9.19867 6.00236 9.18719C6.0376 9.16415 6.06223 9.14162 6.07314 9.13131C6.09647 9.10928 6.11296 9.08944 6.11903 9.08207C6.13363 9.06435 6.14567 9.04751 6.15223 9.03822C6.1672 9.01701 6.18436 8.99106 6.20178 8.96413C6.23773 8.90858 6.28796 8.82846 6.3514 8.72575L5.5006 8.20025C5.43804 8.30154 5.39227 8.37442 5.36222 8.42087C5.34664 8.44494 5.3383 8.45724 5.33527 8.46153C5.33283 8.46499 5.33775 8.45772 5.3471 8.44636C5.35054 8.44218 5.36488 8.42473 5.38652 8.4043C5.39658 8.39479 5.42048 8.37286 5.45511 8.35022C5.47288 8.3386 5.50205 8.32111 5.54073 8.30545C5.5773 8.29065 5.643 8.269 5.728 8.269V9.269ZM5.926 8.963C6.09767 8.963 6.21293 8.87818 6.24604 8.85287C6.29265 8.81722 6.32637 8.77985 6.34594 8.75672C6.3866 8.70867 6.42223 8.65452 6.45083 8.60805L5.59917 8.08395C5.57977 8.11548 5.5749 8.11983 5.58256 8.11078C5.58563 8.10715 5.60472 8.08441 5.63859 8.05851C5.65624 8.04501 5.68667 8.02386 5.72892 8.00492C5.77069 7.98619 5.83884 7.963 5.926 7.963V8.963ZM6.37855 8.69955C6.48705 8.59105 6.606 8.41738 6.606 8.184H5.606C5.606 8.05862 5.67095 7.99294 5.67145 7.99245L6.37855 8.69955ZM6.51037 8.47809L6.65437 8.28009L5.84563 7.69191L5.70163 7.88991L6.51037 8.47809ZM6.75 7.986C6.75 8.04288 6.73978 8.08729 6.73245 8.11295C6.72473 8.13996 6.71614 8.16018 6.71073 8.1719C6.70505 8.1842 6.70019 8.19292 6.69758 8.19741C6.69485 8.20212 6.69313 8.2047 6.69302 8.20485C6.69286 8.20509 6.69366 8.20389 6.6957 8.2011C6.69771 8.19835 6.7006 8.19452 6.7045 8.18953C6.71242 8.17941 6.72328 8.16614 6.73763 8.1494L5.97837 7.4986C5.93701 7.54686 5.8952 7.59881 5.86098 7.65015C5.84406 7.67552 5.82214 7.71089 5.80277 7.75285C5.78821 7.78439 5.75 7.87128 5.75 7.986H6.75ZM6.80161 8.05468C6.86478 7.9332 6.95483 7.79018 7.0762 7.62468L6.2698 7.03332C6.12717 7.22782 6.00722 7.4148 5.91439 7.59332L6.80161 8.05468ZM7.08903 7.60635C7.16102 7.49835 7.20903 7.42635 7.23303 7.39035L6.40097 6.83565C6.37697 6.87165 6.32898 6.94365 6.25698 7.05165L7.08903 7.60635ZM7.22387 7.40362C7.25789 7.35598 7.2973 7.29744 7.32721 7.23761L6.43279 6.79039C6.43406 6.78785 6.43505 6.78599 6.43565 6.78488C6.43626 6.78375 6.4366 6.78317 6.4366 6.78317C6.4366 6.78316 6.43635 6.78359 6.43581 6.78449C6.43526 6.78539 6.43447 6.78665 6.43342 6.78831C6.42894 6.79535 6.42148 6.8065 6.41013 6.82238L7.22387 7.40362ZM7.28 7.314C7.28624 7.30568 7.28892 7.30318 7.28756 7.30455L6.58044 6.59745C6.54308 6.63482 6.50976 6.67431 6.48 6.714L7.28 7.314ZM6.934 6.451H6.862V7.451H6.934V6.451ZM6.81225 6.45348L6.63225 6.47148L6.73175 7.46652L6.91175 7.44852L6.81225 6.45348ZM6.682 6.469C6.59344 6.469 6.50779 6.48816 6.45273 6.50193L6.69527 7.47207C6.70259 7.47024 6.70829 7.46893 6.71251 7.46803C6.71679 7.46711 6.71893 7.46674 6.7192 7.4667C6.71958 7.46663 6.71683 7.46711 6.7115 7.46764C6.70644 7.46815 6.69618 7.469 6.682 7.469V6.469ZM6.44401 6.50419C6.21393 6.56614 6.03574 6.60996 5.90624 6.63722C5.84136 6.65088 5.79368 6.65932 5.76071 6.66392C5.72116 6.66944 5.72351 6.6664 5.74836 6.66786L5.68964 7.66614C5.81778 7.67367 5.97869 7.64389 6.11226 7.61577C6.26776 7.58304 6.46607 7.53386 6.70399 7.46981L6.44401 6.50419ZM5.74836 6.66786C5.58536 6.65827 5.40028 6.67885 5.22757 6.77305L5.70643 7.65095C5.68621 7.66198 5.67139 7.66525 5.6674 7.66596C5.66401 7.66657 5.67042 7.66501 5.68964 7.66614L5.74836 6.66786ZM5.467 6.712C5.32014 6.712 5.15893 6.73311 4.99094 6.76671L5.18706 7.74729C5.31907 7.72089 5.40986 7.712 5.467 7.712V6.712ZM5.089 6.757C4.99746 6.757 4.94698 6.74625 4.92515 6.7391C4.90632 6.73293 4.92521 6.73514 4.94946 6.76393L4.18454 7.40807C4.42453 7.69306 4.78787 7.757 5.089 7.757V6.757ZM4.96331 6.78114L4.87331 6.66414L4.08069 7.27386L4.17069 7.39086L4.96331 6.78114ZM4.92088 6.73884L4.79488 6.49584L3.90712 6.95616L4.03312 7.19916L4.92088 6.73884ZM4.83338 6.59444C4.83841 6.61287 4.83942 6.6243 4.83952 6.6255C4.83966 6.62709 4.83923 6.62304 4.83955 6.61203C4.8402 6.58914 4.84362 6.55069 4.8532 6.4932L3.8668 6.3288C3.84141 6.48118 3.82 6.67928 3.86862 6.85756L4.83338 6.59444ZM4.82424 6.5967C4.80699 6.63983 4.78195 6.67244 4.75893 6.6941C4.74807 6.70432 4.73872 6.71113 4.7324 6.71525C4.72923 6.71731 4.72674 6.71875 4.72509 6.71966C4.72344 6.72056 4.72254 6.72097 4.72253 6.72098L4.30347 5.81302C4.1486 5.8845 3.98117 6.01179 3.89576 6.2253L4.82424 6.5967ZM4.73661 6.71421C4.73789 6.71357 4.75725 6.704 4.81 6.704V5.704C4.63475 5.704 4.45611 5.73643 4.28939 5.81979L4.73661 6.71421ZM4.81 6.704C5.01083 6.704 5.25067 6.69433 5.52726 6.67589L5.46074 5.67811C5.19733 5.69567 4.98117 5.704 4.81 5.704V6.704ZM5.52726 6.67589C5.7915 6.65828 6.0835 6.64351 6.40351 6.63166L6.36649 5.63234C6.0385 5.64449 5.7365 5.65972 5.46074 5.67811L5.52726 6.67589ZM6.385 6.632C6.77977 6.632 7.32437 6.57279 8.00334 6.46367L7.84466 5.47633C7.17963 5.58321 6.69823 5.632 6.385 5.632V6.632ZM7.97375 6.46752C7.91821 6.47307 7.88154 6.46249 7.87286 6.45971C7.86389 6.45684 7.86957 6.45744 7.89175 6.47075L8.40625 5.61325C8.28495 5.54047 8.09525 5.45038 7.87425 5.47248L7.97375 6.46752ZM7.89175 6.47075C7.93995 6.49966 7.95268 6.51753 7.95163 6.51609L8.76037 5.92791C8.66332 5.79447 8.53805 5.69233 8.40625 5.61325L7.89175 6.47075ZM7.89176 6.40769C7.94036 6.5292 8.00121 6.64501 8.07763 6.75009L8.88637 6.16191C8.86679 6.13499 8.84364 6.0948 8.82024 6.0363L7.89176 6.40769ZM8.01999 6.64718C8.01669 6.63919 8.01362 6.62755 8.01298 6.61444C8.01235 6.60168 8.01435 6.59452 8.01417 6.59513C8.01293 6.59956 8.00023 6.63677 7.94037 6.7066L8.69963 7.3574C8.93765 7.07971 9.11934 6.68855 8.94401 6.26482L8.01999 6.64718ZM7.99075 6.65571L7.77475 6.84471L8.43325 7.59729L8.64925 7.40829L7.99075 6.65571ZM8.104 6.721C7.92924 6.721 7.81441 6.81286 7.80488 6.81992C7.77101 6.84501 7.7476 6.86902 7.7377 6.87944C7.71596 6.90233 7.70005 6.92327 7.69331 6.93225C7.67743 6.95342 7.66247 6.9759 7.65103 6.99351C7.62649 7.03125 7.59502 7.08247 7.55825 7.14375L8.41575 7.65825C8.45098 7.59953 8.47501 7.56075 8.48947 7.53849C8.49753 7.5261 8.49794 7.52608 8.49331 7.53225C8.4922 7.53373 8.48089 7.54905 8.4627 7.56819C8.45459 7.57673 8.4327 7.59934 8.4001 7.62348C8.38355 7.63574 8.35425 7.65591 8.3142 7.67454C8.27755 7.69159 8.20311 7.721 8.104 7.721V6.721ZM7.58062 7.1097C7.33794 7.44826 7.15168 7.70602 7.0213 7.88382C6.95595 7.97293 6.90586 8.04029 6.87027 8.08703C6.8235 8.14847 6.82244 8.14646 6.84145 8.12745L7.54855 8.83455C7.58857 8.79454 7.63625 8.73178 7.66598 8.69272C7.70689 8.63896 7.76105 8.56607 7.8277 8.47518C7.96132 8.29298 8.15006 8.03174 8.39338 7.6923L7.58062 7.1097ZM6.74779 8.25739C6.7512 8.25057 6.75246 8.24871 6.74897 8.25476C6.7461 8.25974 6.74147 8.26755 6.73461 8.27877C6.72088 8.30124 6.70138 8.33222 6.67541 8.37262L7.51659 8.91338C7.56586 8.83674 7.61559 8.75786 7.64221 8.70461L6.74779 8.25739ZM6.67017 8.38095C6.62136 8.46028 6.58197 8.52577 6.55388 8.57493L7.42212 9.07107C7.44203 9.03623 7.47464 8.98172 7.52183 8.90505L6.67017 8.38095ZM6.60312 8.50383L6.29712 8.87283L7.06688 9.51117L7.37288 9.14217L6.60312 8.50383ZM6.182 9.192C6.182 9.15958 6.18552 9.13392 6.18834 9.1179C6.19127 9.10129 6.1946 9.08873 6.19676 9.08128C6.20087 9.06714 6.2039 9.06076 6.20218 9.06479C6.20085 9.0679 6.19743 9.07544 6.19092 9.08822C6.18453 9.10076 6.17609 9.11653 6.16521 9.13587L7.03679 9.62613C7.068 9.57065 7.09785 9.51347 7.12132 9.45871C7.13585 9.4248 7.182 9.31854 7.182 9.192H6.182ZM6.32365 8.96498L6.26965 9.00098L6.82435 9.83302L6.87835 9.79702L6.32365 8.96498ZM6.14349 9.12174L5.87349 9.49074L6.68052 10.0813L6.95052 9.71226L6.14349 9.12174ZM5.8641 9.50402L5.6121 9.87302L6.4379 10.437L6.6899 10.068L5.8641 9.50402ZM5.63125 9.84685L5.46925 10.0538L6.25675 10.6702L6.41875 10.4632L5.63125 9.84685ZM5.43425 10.1048L5.32625 10.2848L6.18375 10.7992L6.29175 10.6192L5.43425 10.1048ZM5.255 10.542C5.255 10.5058 5.2594 10.4768 5.26334 10.4574C5.26737 10.4376 5.27204 10.4225 5.27528 10.413C5.28143 10.3951 5.28633 10.3864 5.28471 10.3895C5.28361 10.3916 5.27971 10.3987 5.27151 10.4117C5.26349 10.4244 5.25267 10.4406 5.23852 10.4607L6.05548 11.0373C6.09766 10.9776 6.13873 10.9144 6.17129 10.852C6.19283 10.8108 6.255 10.6908 6.255 10.542H5.255ZM5.22722 10.4774C5.15742 10.5852 5.09542 10.6862 5.04188 10.7799L5.91012 11.2761C5.95258 11.2018 6.00458 11.1168 6.06679 11.0206L5.22722 10.4774ZM5.03576 10.791C4.99878 10.8596 4.96287 10.921 4.92817 10.9756L5.77183 11.5124C5.82113 11.435 5.86922 11.3524 5.91624 11.265L5.03576 10.791ZM5.429 11.7377L5.654 11.7017L5.496 10.7143L5.271 10.7503L5.429 11.7377ZM5.70121 11.6918L6.11521 11.5838L5.86279 10.6162L5.44879 10.7242L5.70121 11.6918ZM5.989 11.6C6.16798 11.6 6.3463 11.5456 6.50232 11.4818L6.12368 10.5562C6.07399 10.5766 6.03716 10.5883 6.01173 10.5947C5.98539 10.6013 5.97936 10.6 5.989 10.6V11.6ZM6.313 11.519C6.38781 11.519 6.46391 11.5154 6.53671 11.505L6.39529 10.515C6.38409 10.5166 6.35819 10.519 6.313 10.519V11.519ZM6.81955 11.3636C6.76653 11.4166 6.71435 11.4441 6.69039 11.4557C6.6629 11.469 6.64056 11.4764 6.62902 11.4799C6.60642 11.4868 6.59253 11.4886 6.59573 11.4881C6.60039 11.4874 6.62131 11.4848 6.66636 11.4821L6.60764 10.4839C6.55069 10.4872 6.49211 10.4921 6.43977 10.5004C6.41447 10.5044 6.3777 10.5111 6.33786 10.5232C6.32023 10.5286 6.20921 10.5597 6.11245 10.6564L6.81955 11.3636ZM6.91435 11.399C6.89261 11.4135 6.87399 11.4233 6.86212 11.4292C6.84966 11.4353 6.83934 11.4397 6.8324 11.4425C6.819 11.4478 6.80966 11.4507 6.80732 11.4514C6.80269 11.4528 6.80539 11.4518 6.81972 11.4486C6.84737 11.4424 6.89349 11.4336 6.9622 11.4222L6.7978 10.4358C6.72251 10.4484 6.65613 10.4606 6.60278 10.4724C6.57661 10.4782 6.54669 10.4855 6.51731 10.4944C6.50507 10.4981 6.43197 10.5188 6.35965 10.567L6.91435 11.399ZM6.9622 11.4222C7.03163 11.4106 7.08419 11.4026 7.12158 11.3976C7.14029 11.3951 7.1528 11.3937 7.16028 11.393C7.17014 11.3921 7.16434 11.393 7.15 11.393V10.393C7.06313 10.393 6.92605 10.4144 6.7978 10.4358L6.9622 11.4222ZM7.15 11.393C7.27033 11.393 7.44278 11.3721 7.6389 11.3424L7.4891 10.3536C7.28922 10.3839 7.18567 10.393 7.15 10.393V11.393ZM7.59962 11.3467C7.62938 11.3446 7.65182 11.3442 7.66788 11.3445C7.68433 11.3449 7.69053 11.346 7.6888 11.3457C7.68773 11.3455 7.67128 11.3428 7.64593 11.3321C7.6203 11.3213 7.57773 11.2988 7.53445 11.2556L8.24155 10.5484C8.1111 10.418 7.95217 10.3758 7.8532 10.3593C7.74537 10.3413 7.63308 10.3418 7.52838 10.3493L7.59962 11.3467ZM7.53445 11.2556C7.5353 11.2564 7.5303 11.2515 7.52461 11.2403C7.51872 11.2288 7.51523 11.2166 7.51389 11.2066C7.51133 11.1874 7.51912 11.1987 7.49663 11.2541L8.42337 11.6299C8.49089 11.4633 8.53167 11.2736 8.50511 11.0744C8.47749 10.8672 8.38201 10.6889 8.24155 10.5484L7.53445 11.2556ZM7.46 11.442C7.46 11.281 7.5369 11.175 7.56507 11.1398C7.5988 11.0976 7.63088 11.0728 7.642 11.0645C7.66572 11.0467 7.67899 11.0415 7.66439 11.0488L8.11161 11.9432C8.14501 11.9265 8.19428 11.9003 8.242 11.8645C8.26512 11.8472 8.3062 11.8141 8.34593 11.7645C8.3801 11.7218 8.46 11.609 8.46 11.442H7.46ZM7.73235 11.0208C7.37765 11.137 7.18606 11.1978 7.13544 11.2116L7.39856 12.1764C7.47994 12.1542 7.70235 12.083 8.04365 11.9712L7.73235 11.0208ZM7.17258 11.203C6.9909 11.2379 6.81869 11.2873 6.6671 11.3586L7.0929 12.2634C7.14531 12.2387 7.23111 12.2101 7.36142 12.185L7.17258 11.203ZM6.88 11.311C6.72859 11.311 6.60031 11.3738 6.54839 11.3998L6.99561 12.2942C7.00636 12.2888 7.00463 12.2905 6.99311 12.2943C6.9869 12.2964 6.97478 12.3001 6.95781 12.3035C6.94135 12.3068 6.91445 12.311 6.88 12.311V11.311ZM6.5591 11.3946C6.49771 11.4235 6.39704 11.4591 6.24573 11.4969L6.48827 12.4671C6.67296 12.4209 6.84229 12.3665 6.9849 12.2994L6.5591 11.3946ZM6.22856 11.5015C5.87263 11.6041 5.66707 11.6628 5.60544 11.6796L5.86856 12.6444C5.93893 12.6252 6.15337 12.5639 6.50544 12.4625L6.22856 11.5015ZM5.5513 11.6978C5.52594 11.7079 5.43408 11.7366 5.24306 11.7859L5.49294 12.7541C5.67392 12.7074 5.82806 12.6641 5.9227 12.6262L5.5513 11.6978ZM5.22433 11.7911C5.06004 11.8404 4.94396 11.8639 4.86825 11.8715L4.96775 12.8665C5.13204 12.8501 5.31597 12.8076 5.51167 12.7489L5.22433 11.7911ZM4.86825 11.8715C4.9065 11.8677 4.91858 11.8775 4.89311 11.8679C4.86796 11.8583 4.82239 11.8357 4.75473 11.7884L4.18127 12.6076C4.38764 12.7521 4.66373 12.8969 4.96775 12.8665L4.86825 11.8715ZM4.733 11.774C4.72464 11.7688 4.73072 11.7717 4.74398 11.7836C4.75107 11.79 4.76278 11.8012 4.77634 11.8177C4.78973 11.834 4.80807 11.8591 4.82521 11.8934L3.93079 12.3406C4.00936 12.4978 4.14609 12.5864 4.203 12.622L4.733 11.774ZM4.79403 11.8396L4.68603 11.6776L3.85397 12.2324L3.96197 12.3944L4.79403 11.8396ZM4.67687 11.6644C4.66042 11.6413 4.65363 11.6265 4.65113 11.6199C4.64888 11.614 4.65003 11.6148 4.65028 11.6205C4.65039 11.6231 4.65027 11.6256 4.64998 11.6279C4.6497 11.6301 4.64936 11.6312 4.64945 11.6309C4.64959 11.6304 4.65215 11.6221 4.66279 11.6056L3.82321 11.0624C3.71086 11.236 3.64147 11.4398 3.65122 11.664C3.66085 11.8855 3.74569 12.0812 3.86313 12.2456L4.67687 11.6644ZM4.743 11.334C4.743 11.3815 4.73598 11.4187 4.73127 11.4395C4.72619 11.4618 4.72048 11.4792 4.71668 11.4898C4.70934 11.5104 4.70271 11.5236 4.70146 11.5261C4.69872 11.5316 4.70054 11.5273 4.712 11.509L3.864 10.979C3.84546 11.0087 3.82478 11.0434 3.80704 11.0789C3.79829 11.0964 3.78604 11.1224 3.77494 11.1535C3.76738 11.1746 3.743 11.2438 3.743 11.334H4.743ZM4.74838 11.4391L4.97338 10.9081L4.05262 10.5179L3.82762 11.0489L4.74838 11.4391ZM5.00227 10.816L5.03827 10.645L4.05973 10.439L4.02373 10.61L5.00227 10.816ZM5.049 10.542C5.049 10.5943 5.04032 10.6357 5.03347 10.6613C5.02636 10.6878 5.01828 10.708 5.01285 10.7203C5.00245 10.7439 4.99356 10.7573 4.99354 10.7574C4.99329 10.7578 5.00255 10.744 5.02969 10.712L4.26631 10.066C4.22745 10.112 4.18721 10.1627 4.15396 10.2141C4.13744 10.2397 4.11617 10.2752 4.09753 10.3176C4.08249 10.3517 4.049 10.4342 4.049 10.542H5.049ZM5.10491 10.5921C5.11635 10.5663 5.13222 10.5371 5.15403 10.5043L4.32197 9.94965C4.27178 10.0249 4.22765 10.1037 4.19109 10.1859L5.10491 10.5921ZM5.15403 10.5044C5.17339 10.4753 5.19209 10.4465 5.20725 10.4212C5.2143 10.4095 5.22519 10.3909 5.23584 10.3696C5.24092 10.3594 5.25019 10.3403 5.25932 10.3159C5.26252 10.3074 5.292 10.2341 5.292 10.137H4.292C4.292 10.0807 4.30171 10.0372 4.30672 10.0171C4.31254 9.99386 4.31892 9.97566 4.32299 9.96481C4.33099 9.94347 4.33858 9.92806 4.34141 9.92239C4.34756 9.9101 4.3517 9.9035 4.34975 9.90675C4.34691 9.91149 4.33861 9.9247 4.32197 9.94965L5.15403 10.5044ZM5.21122 10.4095C5.27472 10.3118 5.31814 10.2669 5.33709 10.2511L4.69691 9.48289C4.57186 9.58709 4.46528 9.7222 4.37278 9.86451L5.21122 10.4095ZM5.43622 10.1395L5.55322 9.95949L4.71478 9.41451L4.59778 9.59451L5.43622 10.1395ZM5.52206 10.0023L5.63906 9.8583L4.86294 9.2277L4.74594 9.3717L5.52206 10.0023ZM5.751 9.543C5.751 9.60414 5.73872 9.65016 5.73133 9.67342C5.7234 9.69839 5.71521 9.71527 5.71171 9.72215C5.70518 9.73497 5.70365 9.73492 5.71565 9.71848C5.72636 9.70381 5.74326 9.6823 5.76816 9.65309C5.79276 9.62425 5.82316 9.59022 5.85995 9.55071L5.12805 8.86929C5.04174 8.962 4.96552 9.04999 4.90785 9.12902C4.87935 9.16808 4.84745 9.21566 4.82067 9.26822C4.80047 9.30787 4.751 9.41019 4.751 9.543H5.751ZM5.95824 9.39569C5.95111 9.41351 5.94481 9.42568 5.94261 9.42984C5.93996 9.43488 5.93849 9.43726 5.93906 9.43631C5.94036 9.43414 5.94502 9.42666 5.95471 9.4124C5.974 9.38405 6.00407 9.34224 6.047 9.285L5.247 8.685C5.19993 8.74776 5.15951 8.80345 5.12779 8.85009C5.10601 8.88212 5.05898 8.95126 5.02976 9.02431L5.95824 9.39569ZM6.11516 9.16056L6.19616 8.94456L5.25984 8.59344L5.17884 8.80944L6.11516 9.16056ZM11.3178 7.05L11.805 6.93757L11.7917 6.8796L11.7651 6.82639L11.3178 7.05ZM11.2728 7.212L11.4965 7.65921L11.5177 7.64859L11.5378 7.636L11.2728 7.212ZM10.7238 7.266L10.6961 6.76677L10.6564 6.76897L10.6176 6.77741L10.7238 7.266ZM10.3098 7.383V7.883H10.3943L10.4741 7.85525L10.3098 7.383ZM10.3008 7.383V6.883H9.80084V7.383H10.3008ZM10.2108 7.86L9.73008 7.72264L9.71084 7.78997V7.86H10.2108ZM10.1658 8.211L9.6742 8.11996L9.66584 8.16509V8.211H10.1658ZM10.1388 8.355L9.67068 8.17944L9.67068 8.17944L10.1388 8.355ZM10.1118 8.58L10.6047 8.66415L10.6118 8.62238V8.58H10.1118ZM10.0578 8.985L10.5429 8.86373L10.5429 8.86373L10.0578 8.985ZM10.0578 9.084L10.5528 9.15471L10.5528 9.15471L10.0578 9.084ZM9.94984 9.876L9.4755 9.71789L9.44984 9.79486V9.876H9.94984ZM9.94984 9.975H9.44984V9.98888L9.45061 10.0027L9.94984 9.975ZM9.92284 10.434L9.4485 10.2759L9.44367 10.2904L9.43973 10.3052L9.92284 10.434ZM9.84184 10.956L10.3294 11.0668L10.3294 11.0668L9.84184 10.956ZM9.81484 11.424L9.31595 11.4573L9.34707 11.924H9.81484V11.424ZM9.86884 11.424V11.924H9.88881L9.90872 11.9224L9.86884 11.424ZM10.1028 11.415L9.74929 11.7686L9.89574 11.915H10.1028V11.415ZM10.2288 11.388L10.26 10.889L10.1827 10.8841L10.1076 10.9029L10.2288 11.388ZM10.3728 11.397L10.3417 11.896L10.3572 11.897H10.3728V11.397ZM10.5798 11.469L10.2675 11.8594L10.28 11.8694L10.2931 11.8786L10.5798 11.469ZM10.7058 11.595L10.2717 11.8431L10.3049 11.9012L10.3523 11.9486L10.7058 11.595ZM10.7418 11.721L10.2823 11.524L10.2741 11.5432L10.2675 11.5629L10.7418 11.721ZM10.5438 11.91L10.6944 12.3868L10.7757 12.3611L10.8438 12.31L10.5438 11.91ZM10.3728 11.964L10.2223 11.4872L10.1057 11.524L10.0193 11.6104L10.3728 11.964ZM10.2468 12.027L10.076 11.5571L10.2468 12.027ZM10.0758 12.063V11.563H10.0221L9.96963 11.5744L10.0758 12.063ZM9.83284 12.216L10.2801 12.4396L10.2959 12.4078L10.3072 12.3741L9.83284 12.216ZM9.40084 12.27L9.42355 11.7705L9.4122 11.77H9.40084V12.27ZM9.09484 12.27V11.77H9.01777L8.94428 11.7932L9.09484 12.27ZM8.92384 12.324L8.77328 11.8472L8.75548 11.8528L8.73815 11.8598L8.92384 12.324ZM8.52784 12.369L8.65509 11.8855L8.65509 11.8855L8.52784 12.369ZM8.29384 12.297L8.4908 11.8374L8.47169 11.8292L8.45196 11.8227L8.29384 12.297ZM8.15884 12.207L8.49103 11.8333L8.47876 11.8224L8.46581 11.8123L8.15884 12.207ZM8.08684 12.054L7.59875 11.9455L7.59229 11.9746L7.58933 12.0042L8.08684 12.054ZM8.14984 11.811L7.83199 11.425L7.71028 11.5253L7.66808 11.6772L8.14984 11.811ZM8.36584 11.649L8.21671 11.1718L8.1649 11.1879L8.11777 11.2149L8.36584 11.649ZM8.91484 11.469L9.09433 11.9357L9.41484 11.8124V11.469H8.91484ZM8.89684 11.118L8.73873 10.6437L8.26439 10.8018L8.4225 11.2761L8.89684 11.118ZM8.95984 10.731L8.47477 10.6097L8.46566 10.6462L8.4621 10.6836L8.95984 10.731ZM8.91484 10.56H8.41484V10.6563L8.45061 10.7457L8.91484 10.56ZM8.91484 10.506L8.41769 10.4527L8.41484 10.4793V10.506H8.91484ZM8.90584 10.047H8.40584V10.0902L8.41324 10.1327L8.90584 10.047ZM8.94184 9.732L8.55773 9.41191L8.46263 9.52604L8.44527 9.67358L8.94184 9.732ZM8.94184 9.444L8.45257 9.34099L8.43182 9.43954L8.45084 9.53842L8.94184 9.444ZM9.00484 9.174L9.48723 9.30556L9.50009 9.25839L9.50357 9.20962L9.00484 9.174ZM9.01384 9.048L9.51257 9.08362L9.51384 9.06583V9.048H9.01384ZM9.06784 8.724L9.55813 8.82206L9.56784 8.77351V8.724H9.06784ZM9.06784 8.634L8.58277 8.51273L8.56784 8.57245V8.634H9.06784ZM9.08584 8.562L9.57092 8.68327L9.57168 8.68018L9.08584 8.562ZM9.30184 7.59L9.79424 7.67689L9.92815 6.91804L9.18058 7.10493L9.30184 7.59ZM9.21184 7.608V7.108H9.17418L9.13694 7.11364L9.21184 7.608ZM8.91484 7.653L8.83994 7.15864L8.81348 7.16265L8.7876 7.16946L8.91484 7.653ZM8.31184 7.5L7.90902 7.7962L7.9368 7.83398L7.97113 7.86595L8.31184 7.5ZM8.30284 6.978L7.97538 6.60016L7.9619 6.61184L7.94929 6.62445L8.30284 6.978ZM8.71684 6.816L8.79646 7.30962L8.83649 7.30316L8.87496 7.29034L8.71684 6.816ZM9.03184 6.699V6.199H8.91381L8.80824 6.25179L9.03184 6.699ZM9.45484 6.501L9.38788 6.0055L9.2869 6.01915L9.19931 6.07123L9.45484 6.501ZM9.84184 6.456V6.956H9.87363L9.90516 6.95197L9.84184 6.456ZM10.2648 6.402L10.2096 5.90499L10.2015 5.90602L10.2648 6.402ZM10.4808 6.42L10.3828 6.91029L10.3987 6.91347L10.4148 6.91561L10.4808 6.42ZM10.6428 6.474L10.2428 6.774L10.3524 6.92012L10.5304 6.9612L10.6428 6.474ZM10.9308 6.582L11.2687 6.21342L11.2131 6.16243L11.1449 6.13013L10.9308 6.582ZM11.1468 6.78L11.5565 6.49327L11.5251 6.44842L11.4847 6.41142L11.1468 6.78ZM10.8306 7.16243C10.8284 7.15284 10.816 7.09559 10.8383 7.01518C10.8647 6.92044 10.927 6.8385 11.0078 6.788L11.5378 7.636C11.6666 7.5555 11.7605 7.43156 11.8019 7.28282C11.8392 7.14841 11.8253 7.02516 11.805 6.93757L10.8306 7.16243ZM11.0492 6.76479C11.0591 6.75986 11.0709 6.75539 11.0841 6.75229C11.0972 6.74919 11.1095 6.748 11.1198 6.748V7.748C11.251 7.748 11.3786 7.71815 11.4965 7.65921L11.0492 6.76479ZM11.1198 6.748C11.0546 6.748 10.9058 6.75512 10.6961 6.76677L10.7516 7.76523C10.9739 7.75288 11.0891 7.748 11.1198 7.748V6.748ZM10.6176 6.77741C10.4593 6.81183 10.3019 6.85637 10.1456 6.91075L10.4741 7.85525C10.5938 7.81363 10.7124 7.78017 10.8301 7.75459L10.6176 6.77741ZM10.3098 6.883H10.3008V7.883H10.3098V6.883ZM9.80084 7.383C9.80084 7.41807 9.78755 7.5215 9.73008 7.72264L10.6916 7.99736C10.7541 7.7785 10.8008 7.56393 10.8008 7.383H9.80084ZM9.71084 7.86C9.71084 7.88211 9.70388 7.95969 9.6742 8.11996L10.6575 8.30204C10.6878 8.13831 10.7108 7.98189 10.7108 7.86H9.71084ZM9.66584 8.211C9.66584 8.20355 9.66656 8.19671 9.66766 8.19086C9.66874 8.18506 9.67003 8.18118 9.67068 8.17944L10.607 8.53056C10.6446 8.43027 10.6658 8.32293 10.6658 8.211H9.66584ZM9.67068 8.17944C9.61973 8.3153 9.61184 8.46536 9.61184 8.58H10.6118C10.6118 8.54252 10.6136 8.51909 10.615 8.50682C10.6157 8.50103 10.6161 8.50017 10.6154 8.50327C10.6148 8.5061 10.6125 8.51594 10.607 8.53056L9.67068 8.17944ZM9.61898 8.49585C9.59764 8.62081 9.58144 8.7231 9.57123 8.79967C9.56622 8.83728 9.56181 8.87485 9.55926 8.90856C9.55801 8.92512 9.55672 8.94699 9.55672 8.9708C9.55672 8.98382 9.55628 9.0403 9.57277 9.10627L10.5429 8.86373C10.5518 8.89927 10.5545 8.92745 10.5554 8.93972C10.5566 8.95421 10.5567 8.96521 10.5567 8.9708C10.5567 8.98166 10.5562 8.98713 10.5564 8.98382C10.5569 8.97778 10.5585 8.96172 10.5625 8.93183C10.5702 8.8734 10.584 8.78519 10.6047 8.66415L9.61898 8.49585ZM9.57277 9.10627C9.56319 9.06795 9.56234 9.03945 9.56234 9.02775C9.56234 9.01503 9.56342 9.00947 9.56287 9.01329L10.5528 9.15471C10.5624 9.08788 10.572 8.97997 10.5429 8.86373L9.57277 9.10627ZM9.56287 9.01329C9.55942 9.03744 9.55044 9.08657 9.53294 9.16824L10.5107 9.37776C10.5292 9.29143 10.5443 9.21456 10.5528 9.15471L9.56287 9.01329ZM9.53294 9.16824C9.50562 9.29574 9.49484 9.43147 9.49484 9.57H10.4948C10.4948 9.48053 10.5021 9.41826 10.5107 9.37776L9.53294 9.16824ZM9.49484 9.57C9.49484 9.64076 9.48548 9.68796 9.4755 9.71789L10.4242 10.0341C10.4742 9.88404 10.4948 9.72724 10.4948 9.57H9.49484ZM9.44984 9.876V9.975H10.4498V9.876H9.44984ZM9.45061 10.0027C9.45595 10.0988 9.45599 10.1709 9.45296 10.2224C9.44966 10.2784 9.44378 10.29 9.4485 10.2759L10.3972 10.5921C10.46 10.4038 10.4612 10.1661 10.4491 9.94726L9.45061 10.0027ZM9.43973 10.3052C9.40872 10.4214 9.38684 10.5448 9.38684 10.668H10.3868C10.3868 10.6592 10.389 10.6266 10.406 10.5628L9.43973 10.3052ZM9.38684 10.668C9.38684 10.6613 9.38722 10.6718 9.38159 10.7078C9.37638 10.7411 9.36765 10.7864 9.35428 10.8452L10.3294 11.0668C10.36 10.9322 10.3868 10.7887 10.3868 10.668H9.38684ZM9.35428 10.8452C9.31066 11.0371 9.30173 11.2439 9.31595 11.4573L10.3137 11.3907C10.304 11.2441 10.313 11.1389 10.3294 11.0668L9.35428 10.8452ZM9.81484 11.924H9.86884V10.924H9.81484V11.924ZM9.90872 11.9224C9.98189 11.9166 10.0306 11.9135 10.0591 11.9124C10.0747 11.9118 10.0752 11.9122 10.067 11.9119C10.0645 11.9118 10.0458 11.9112 10.02 11.9072C10.0077 11.9053 9.98029 11.9005 9.94633 11.8895C9.92885 11.8838 9.90251 11.8742 9.87214 11.8585C9.84338 11.8436 9.79658 11.8158 9.74929 11.7686L10.4564 11.0614C10.3706 10.9756 10.2775 10.9456 10.2554 10.9385C10.2196 10.9268 10.1897 10.9216 10.1744 10.9192C10.1426 10.9142 10.1157 10.913 10.1027 10.9125C10.0735 10.9115 10.0439 10.9122 10.0206 10.9131C9.97106 10.915 9.9058 10.9194 9.82897 10.9256L9.90872 11.9224ZM10.1028 11.915C10.1728 11.915 10.2427 11.8983 10.2481 11.8972C10.2772 11.8909 10.3119 11.8826 10.3501 11.8731L10.1076 10.9029C10.0911 10.9071 10.077 10.9105 10.0652 10.9133C10.0533 10.9161 10.0446 10.9181 10.0386 10.9193C10.0356 10.92 10.0338 10.9203 10.033 10.9205C10.0321 10.9207 10.033 10.9205 10.0353 10.9201C10.0372 10.9198 10.043 10.9188 10.0514 10.9179C10.0558 10.9174 10.0621 10.9167 10.0698 10.9162C10.0772 10.9156 10.0887 10.915 10.1028 10.915V11.915ZM10.1977 11.887L10.3417 11.896L10.404 10.898L10.26 10.889L10.1977 11.887ZM10.3728 11.897H10.4628V10.897H10.3728V11.897ZM10.4628 11.897C10.4116 11.897 10.3709 11.8888 10.3456 11.8823C10.3194 11.8755 10.2991 11.8677 10.2863 11.8623C10.2616 11.8519 10.2463 11.8425 10.2435 11.8408C10.2378 11.8373 10.2444 11.8409 10.2675 11.8594L10.8922 11.0786C10.8553 11.0491 10.8124 11.0167 10.7676 10.9892C10.7454 10.9755 10.7132 10.9571 10.6743 10.9407C10.6436 10.9277 10.5654 10.897 10.4628 10.897V11.897ZM10.2931 11.8786C10.3045 11.8866 10.3065 11.8892 10.3028 11.8856C10.2992 11.882 10.2861 11.8682 10.2717 11.8431L11.14 11.3469C11.0654 11.2165 10.9588 11.1239 10.8666 11.0594L10.2931 11.8786ZM10.3523 11.9486C10.3339 11.9302 10.2898 11.8802 10.2656 11.7954C10.2385 11.7004 10.2482 11.6035 10.2823 11.524L11.2014 11.918C11.2535 11.7965 11.2662 11.6576 11.2271 11.5206C11.1909 11.3938 11.1198 11.3018 11.0594 11.2414L10.3523 11.9486ZM10.2675 11.5629C10.2803 11.5245 10.2955 11.4963 10.3054 11.4796C10.3157 11.4623 10.3248 11.4502 10.33 11.4436C10.3354 11.4368 10.3391 11.4328 10.34 11.4317C10.3411 11.4306 10.3406 11.4312 10.3381 11.4336C10.3328 11.4386 10.3226 11.4478 10.3061 11.4614C10.2898 11.4748 10.2692 11.491 10.2438 11.51L10.8438 12.31C10.911 12.2596 10.9751 12.2079 11.0286 12.1569C11.0553 12.1314 11.0863 12.0996 11.1155 12.0625C11.1406 12.0306 11.1868 11.9672 11.2162 11.8791L10.2675 11.5629ZM10.3933 11.4332L10.2223 11.4872L10.5234 12.4408L10.6944 12.3868L10.3933 11.4332ZM10.0193 11.6104C10.0471 11.5826 10.0714 11.566 10.0823 11.5588C10.0946 11.5509 10.1028 11.5468 10.1042 11.546C10.1065 11.5449 10.0989 11.5488 10.076 11.5571L10.4177 12.4969C10.4608 12.4812 10.5072 12.4626 10.5515 12.4405C10.5871 12.4226 10.6598 12.3841 10.7264 12.3176L10.0193 11.6104ZM10.076 11.5571C10.0608 11.5626 10.0529 11.5644 10.0516 11.5647C10.0501 11.565 10.0588 11.563 10.0758 11.563V12.563C10.2024 12.563 10.32 12.5324 10.4177 12.4969L10.076 11.5571ZM9.96963 11.5744C9.80465 11.6103 9.47314 11.714 9.3585 12.0579L10.3072 12.3741C10.2739 12.474 10.2092 12.5272 10.178 12.5469C10.1519 12.5633 10.1454 12.5596 10.1821 12.5516L9.96963 11.5744ZM9.38563 11.9924C9.42513 11.9134 9.47848 11.8624 9.51822 11.8326C9.55716 11.8034 9.59131 11.7882 9.60952 11.781C9.64352 11.7676 9.66123 11.7673 9.64483 11.7694C9.61497 11.7731 9.54622 11.7761 9.42355 11.7705L9.37814 12.7695C9.51947 12.7759 9.65472 12.7759 9.76886 12.7616C9.82446 12.7547 9.89917 12.7416 9.97517 12.7118C10.0384 12.6869 10.1917 12.6162 10.2801 12.4396L9.38563 11.9924ZM9.40084 11.77H9.09484V12.77H9.40084V11.77ZM8.94428 11.7932L8.77328 11.8472L9.07441 12.8008L9.24541 12.7468L8.94428 11.7932ZM8.73815 11.8598C8.65148 11.8944 8.63315 11.8797 8.65509 11.8855L8.4006 12.8525C8.65054 12.9183 8.89621 12.8736 9.10954 12.7882L8.73815 11.8598ZM8.65509 11.8855C8.60209 11.8715 8.56116 11.8599 8.53089 11.8506C8.4979 11.8405 8.48758 11.836 8.4908 11.8374L8.09688 12.7566C8.17711 12.791 8.28853 12.823 8.4006 12.8525L8.65509 11.8855ZM8.45196 11.8227C8.47209 11.8294 8.48673 11.8363 8.49531 11.8407C8.50406 11.8453 8.50918 11.8486 8.51044 11.8495C8.51233 11.8507 8.50609 11.8467 8.49103 11.8333L7.82666 12.5807C7.89379 12.6404 8.00072 12.7263 8.13573 12.7713L8.45196 11.8227ZM8.46581 11.8123C8.48782 11.8294 8.52483 11.865 8.55275 11.9244C8.58197 11.9864 8.58971 12.0503 8.58436 12.1038L7.58933 12.0042C7.56367 12.2608 7.68376 12.4709 7.85187 12.6017L8.46581 11.8123ZM8.57494 12.1625C8.58398 12.1218 8.60208 12.0511 8.6316 11.9448L7.66808 11.6772C7.6376 11.7869 7.61371 11.8782 7.59875 11.9455L8.57494 12.1625ZM8.4677 12.197C8.51528 12.1578 8.55248 12.1284 8.58034 12.1075C8.61127 12.0843 8.62014 12.0796 8.61391 12.0831L8.11777 11.2149C8.03359 11.263 7.93074 11.3437 7.83199 11.425L8.4677 12.197ZM8.51498 12.1262C8.79834 12.0377 8.99821 11.9726 9.09433 11.9357L8.73535 11.0023C8.67548 11.0254 8.50935 11.0803 8.21671 11.1718L8.51498 12.1262ZM9.41484 11.469C9.41484 11.3664 9.41332 11.278 9.40969 11.2071C9.40737 11.162 9.40245 11.0537 9.37119 10.9599L8.4225 11.2761C8.41413 11.251 8.41056 11.2324 8.40955 11.227C8.40824 11.22 8.40792 11.2167 8.40814 11.2186C8.40863 11.2228 8.40981 11.2351 8.411 11.2584C8.41337 11.3045 8.41484 11.3736 8.41484 11.469H9.41484ZM9.05496 11.5923C9.17373 11.5528 9.24601 11.4802 9.27941 11.4414C9.31541 11.3995 9.33739 11.3602 9.34912 11.3372C9.37248 11.2914 9.38522 11.2501 9.39126 11.2292C9.40453 11.1833 9.41336 11.1354 9.4196 11.0971C9.43283 11.0158 9.44532 10.9073 9.45759 10.7784L8.4621 10.6836C8.45037 10.8067 8.44036 10.8887 8.43259 10.9364C8.42832 10.9626 8.42704 10.9638 8.43055 10.9517C8.43171 10.9476 8.43967 10.9194 8.45835 10.8827C8.46773 10.8644 8.48739 10.8287 8.5211 10.7895C8.5522 10.7533 8.62221 10.6825 8.73873 10.6437L9.05496 11.5923ZM9.44492 10.8523C9.46716 10.7633 9.46135 10.6876 9.45735 10.6516C9.45262 10.6091 9.44412 10.5714 9.43663 10.543C9.42166 10.4861 9.40053 10.4279 9.37908 10.3743L8.45061 10.7457C8.45739 10.7627 8.46222 10.7757 8.46553 10.7852C8.46895 10.7951 8.46989 10.7988 8.46956 10.7975C8.46934 10.7967 8.4685 10.7934 8.46744 10.7881C8.46642 10.783 8.4648 10.774 8.46346 10.762C8.46217 10.7504 8.46071 10.732 8.46124 10.7088C8.46177 10.6864 8.46432 10.6515 8.47477 10.6097L9.44492 10.8523ZM9.41484 10.56V10.506H8.41484V10.56H9.41484ZM9.412 10.5593C9.43397 10.3542 9.43187 10.1535 9.39845 9.96133L8.41324 10.1327C8.42782 10.2165 8.43171 10.3218 8.41769 10.4527L9.412 10.5593ZM9.40584 10.047C9.40584 10.0629 9.40504 10.0752 9.40493 10.0769C9.40468 10.081 9.40443 10.0841 9.40433 10.0854C9.40411 10.088 9.40397 10.0895 9.40404 10.0887C9.40417 10.0874 9.40451 10.084 9.4052 10.0777C9.40653 10.0653 9.40864 10.0465 9.41161 10.0205C9.41751 9.96887 9.42644 9.89228 9.43842 9.79042L8.44527 9.67358C8.43325 9.77572 8.42417 9.85363 8.41808 9.90698C8.41504 9.93352 8.41266 9.95478 8.41099 9.9702C8.41018 9.97773 8.4094 9.98513 8.40877 9.99156C8.40847 9.99461 8.40804 9.9991 8.40764 10.004C8.40745 10.0064 8.40713 10.0105 8.40682 10.0154C8.40667 10.0179 8.40584 10.0308 8.40584 10.047H9.40584ZM9.32595 10.0521C9.46232 9.88846 9.46434 9.69534 9.46434 9.633C9.46434 9.53952 9.45049 9.44134 9.43285 9.34958L8.45084 9.53842C8.45662 9.56849 8.46018 9.59169 8.46222 9.60886C8.46433 9.62657 8.46434 9.63386 8.46434 9.633C8.46434 9.63226 8.46436 9.62772 8.46507 9.62009C8.46576 9.61263 8.46733 9.59975 8.47115 9.58294C8.47766 9.55429 8.49732 9.48441 8.55773 9.41191L9.32595 10.0521ZM9.43112 9.54701C9.45429 9.43695 9.47297 9.35783 9.48723 9.30556L8.52246 9.04244C8.50072 9.12217 8.4774 9.22305 8.45257 9.34099L9.43112 9.54701ZM9.50357 9.20962L9.51257 9.08362L8.51511 9.01238L8.50611 9.13838L9.50357 9.20962ZM9.51384 9.048C9.51384 9.07138 9.51165 9.08318 9.51336 9.06952C9.51446 9.06072 9.51666 9.04549 9.52054 9.0222C9.52827 8.97584 9.54059 8.90979 9.55813 8.82206L8.57755 8.62594C8.5591 8.71821 8.54442 8.79616 8.53415 8.8578C8.52637 8.90445 8.51384 8.98157 8.51384 9.048H9.51384ZM9.56784 8.724V8.634H8.56784V8.724H9.56784ZM9.55292 8.75527L9.57092 8.68327L8.60077 8.44073L8.58277 8.51273L9.55292 8.75527ZM9.57168 8.68018C9.67994 8.23508 9.75525 7.8978 9.79424 7.67689L8.80945 7.50311C8.77644 7.6902 8.70774 8.00092 8.60001 8.44382L9.57168 8.68018ZM9.18058 7.10493C9.17086 7.10736 9.163 7.10925 9.15679 7.11068C9.15045 7.11214 9.14678 7.11291 9.14529 7.11321C9.14327 7.11361 9.14658 7.11289 9.15351 7.1119C9.15713 7.11138 9.16351 7.11054 9.17192 7.10977C9.1797 7.10906 9.19378 7.108 9.21184 7.108V8.108C9.27339 8.108 9.32867 8.09634 9.3414 8.09379C9.36741 8.08859 9.39547 8.08198 9.42311 8.07507L9.18058 7.10493ZM9.13694 7.11364L8.83994 7.15864L8.98975 8.14736L9.28675 8.10236L9.13694 7.11364ZM8.7876 7.16946C8.74418 7.18089 8.72372 7.17705 8.71606 7.17511C8.70821 7.17311 8.68719 7.1663 8.65255 7.13405L7.97113 7.86595C8.26935 8.1436 8.64657 8.24062 9.04209 8.13654L8.7876 7.16946ZM8.71467 7.2038C8.67436 7.14899 8.69609 7.15386 8.69702 7.20788C8.69752 7.23705 8.69136 7.26753 8.67949 7.29429C8.66831 7.3195 8.65659 7.33136 8.6564 7.33155L7.94929 6.62445C7.79911 6.77463 7.69293 6.9794 7.69717 7.22512C7.7011 7.45314 7.79933 7.64701 7.90902 7.7962L8.71467 7.2038ZM8.63031 7.35584C8.62318 7.36202 8.62766 7.35573 8.65604 7.34462C8.68444 7.33351 8.72959 7.32041 8.79646 7.30962L8.63723 6.32238C8.40816 6.35933 8.16536 6.4355 7.97538 6.60016L8.63031 7.35584ZM8.87496 7.29034C9.02978 7.23873 9.16991 7.18898 9.25545 7.14621L8.80824 6.25179C8.80971 6.25105 8.79263 6.2591 8.743 6.27754C8.69777 6.29434 8.63683 6.31562 8.55873 6.34166L8.87496 7.29034ZM9.03184 7.199C9.12552 7.199 9.20476 7.17587 9.24802 7.16167C9.29884 7.14498 9.34874 7.12379 9.39456 7.10234C9.48644 7.05934 9.59313 7.00048 9.71038 6.93077L9.19931 6.07123C9.09455 6.13352 9.01975 6.17366 8.97062 6.19665C8.94594 6.20821 8.93547 6.21177 8.93605 6.21158C8.9367 6.21136 8.94432 6.20885 8.95744 6.20615C8.96943 6.20369 8.9958 6.199 9.03184 6.199V7.199ZM9.5218 6.9965C9.63159 6.98166 9.71584 6.97088 9.77584 6.9639C9.80598 6.9604 9.82785 6.95811 9.84267 6.95676C9.86247 6.95496 9.85754 6.956 9.84184 6.956V5.956C9.78885 5.956 9.71612 5.96411 9.66034 5.9706C9.59135 5.97862 9.5001 5.99034 9.38788 6.0055L9.5218 6.9965ZM9.90516 6.95197L10.3282 6.89797L10.2015 5.90602L9.77853 5.96002L9.90516 6.95197ZM10.3201 6.89894C10.3064 6.90046 10.3042 6.89914 10.3178 6.90027C10.3306 6.90134 10.3517 6.90408 10.3828 6.91029L10.5789 5.92971C10.4681 5.90756 10.338 5.89079 10.2096 5.90506L10.3201 6.89894ZM10.4148 6.91561C10.4446 6.91959 10.4459 6.9219 10.4307 6.91684C10.4225 6.91411 10.3999 6.90609 10.3707 6.88901C10.3429 6.87284 10.2907 6.83787 10.2428 6.774L11.0428 6.174C10.9387 6.03514 10.7968 5.98476 10.747 5.96816C10.6778 5.9451 10.6071 5.93241 10.5469 5.92439L10.4148 6.91561ZM10.5304 6.9612C10.5593 6.96787 10.619 6.98755 10.7168 7.03387L11.1449 6.13013C11.0147 6.06845 10.8824 6.01613 10.7553 5.9868L10.5304 6.9612ZM10.593 6.95058L10.809 7.14858L11.4847 6.41142L11.2687 6.21342L10.593 6.95058ZM10.7372 7.06673C10.8196 7.18442 10.8583 7.24887 10.8706 7.27361L11.7651 6.82639C11.7174 6.73113 11.6421 6.61558 11.5565 6.49327L10.7372 7.06673ZM12.5048 7.824H12.0048V7.84668L12.0068 7.86927L12.5048 7.824ZM12.5138 7.986H12.0138V7.99988L12.0146 8.01374L12.5138 7.986ZM12.5228 8.148L13.0223 8.12544L13.022 8.12026L12.5228 8.148ZM12.5858 9.543L13.0849 9.57236L13.0865 9.54641L13.0853 9.52044L12.5858 9.543ZM12.5768 9.696L12.0777 9.66664L12.0645 9.89078L12.2232 10.0496L12.5768 9.696ZM12.9638 9.633L13.2089 10.0688L13.3244 10.0038L13.3925 9.89025L12.9638 9.633ZM13.0898 9.543L13.2967 9.99818L13.3792 9.96066L13.4433 9.89655L13.0898 9.543ZM13.1708 9.489L13.3565 9.95324L13.6708 9.82752V9.489H13.1708ZM13.2608 9.426L13.4844 9.87321L13.59 9.82043L13.6608 9.726L13.2608 9.426ZM13.3868 9.309L13.6518 9.733L13.6698 9.72174L13.6868 9.709L13.3868 9.309ZM13.4678 9.237L13.0724 8.93091L13.0425 8.96962L13.0206 9.0134L13.4678 9.237ZM13.7648 8.553L13.2797 8.43173L13.2768 8.44327L13.2745 8.45494L13.7648 8.553ZM13.7918 8.346L13.2999 8.25656L13.2918 8.30091V8.346H13.7918ZM13.7918 8.139L13.2976 8.21503L13.2986 8.2212L13.7918 8.139ZM13.7738 7.887H14.2738V7.85147L14.2688 7.81629L13.7738 7.887ZM13.7108 7.599L14.1807 7.42813L14.1573 7.36395L14.1177 7.30838L13.7108 7.599ZM13.6478 7.437L14.1397 7.34756L14.1248 7.26548L14.084 7.1927L13.6478 7.437ZM13.2788 7.113L13.0818 7.57265L13.0901 7.57605L13.2788 7.113ZM13.0988 7.095L13.0093 7.58693L13.0728 7.59847L13.1371 7.59353L13.0988 7.095ZM12.9998 7.077L13.0892 6.58506L13.0449 6.577H12.9998V7.077ZM12.5768 7.122L12.4787 6.63171L12.4787 6.63171L12.5768 7.122ZM12.3428 7.23L11.8478 7.15929L11.8428 7.19447V7.23H12.3428ZM12.3698 7.257L12.2117 7.73134L12.2887 7.757H12.3698V7.257ZM12.4778 7.374L12.9736 7.30933L12.9617 7.21802L12.918 7.13695L12.4778 7.374ZM12.5048 7.581H13.0048V7.54853L13.0006 7.51633L12.5048 7.581ZM12.1628 6.285L12.0988 5.78911L12.0463 5.79589L11.9964 5.8135L12.1628 6.285ZM12.4418 6.249V5.749H12.4097L12.3778 5.75311L12.4418 6.249ZM12.5858 6.267L12.4877 6.75729L12.5363 6.767H12.5858V6.267ZM12.8738 6.294L12.7916 6.7872L12.8324 6.794H12.8738V6.294ZM13.4588 6.357L13.2936 6.82898L13.3007 6.83134L13.4588 6.357ZM13.8818 6.474L13.7694 6.9612L13.7694 6.9612L13.8818 6.474ZM14.5208 6.807L14.8743 6.45345L14.8421 6.42115L14.8044 6.39525L14.5208 6.807ZM14.6198 6.906L14.2662 7.25955L14.4127 7.406H14.6198V6.906ZM14.6648 6.933L14.3112 7.28655L14.3364 7.31168L14.3648 7.333L14.6648 6.933ZM14.7188 6.969L15.1553 6.72509L15.0801 6.59066L14.9424 6.52178L14.7188 6.969ZM14.9168 7.617L14.4183 7.65635L14.4223 7.70624L14.436 7.75436L14.9168 7.617ZM14.9258 7.734L14.4326 7.6518L14.4258 7.69262V7.734H14.9258ZM14.9258 7.869H14.4258V7.95967L14.4576 8.04456L14.9258 7.869ZM14.9438 8.058L14.4453 8.01965L14.4453 8.01965L14.9438 8.058ZM14.9168 8.211L14.4696 7.98739L14.4168 8.09296V8.211H14.9168ZM14.8898 8.355L14.461 8.09775L14.4404 8.13211L14.4256 8.1693L14.8898 8.355ZM14.8088 8.679L14.3258 8.54896L14.3226 8.56231L14.8088 8.679ZM14.4038 9.39L14.7573 9.74355L14.7743 9.72664L14.7895 9.70819L14.4038 9.39ZM14.1788 9.642L13.7548 9.377L13.7537 9.37882L14.1788 9.642ZM14.0618 9.831L14.4603 10.1329L14.4745 10.1142L14.4869 10.0942L14.0618 9.831ZM12.7298 10.371L12.5062 10.8182L12.5974 10.8638L12.6992 10.8701L12.7298 10.371ZM12.5948 10.362V9.862H12.0869L12.0949 10.3698L12.5948 10.362ZM12.6038 10.938L13.1037 10.9478L13.1039 10.939L13.1037 10.9302L12.6038 10.938ZM12.5948 11.397L12.0948 11.3872V11.397H12.5948ZM12.5768 11.739L12.0917 11.6177L12.0844 11.647L12.0807 11.677L12.5768 11.739ZM12.5678 11.892L13.0665 11.9276L13.0678 11.9098V11.892H12.5678ZM12.5408 12.045L12.1248 11.7676L12.1012 11.8031L12.0839 11.8419L12.5408 12.045ZM11.8928 12.162L12.2832 11.8497L12.1331 11.662H11.8928V12.162ZM11.7128 12.081L11.4478 12.505L11.4725 12.5204L11.4987 12.5329L11.7128 12.081ZM11.5238 11.847L12.001 11.6979L11.9996 11.6935L11.5238 11.847ZM11.4608 11.406L11.9541 11.4882L11.9558 11.4767L11.4608 11.406ZM11.4608 10.848L11.9604 10.8272L11.957 10.7473L11.929 10.6724L11.4608 10.848ZM11.4338 10.668L10.9866 10.4444L10.9338 10.55V10.668H11.4338ZM11.4518 10.353L10.9551 10.2957L10.9518 10.3242V10.353H11.4518ZM11.5238 9.651L11.971 9.87461L11.9803 9.85601L11.988 9.8367L11.5238 9.651ZM11.4878 8.391L10.9889 8.42426L10.9905 8.44887L10.9946 8.4732L11.4878 8.391ZM11.4788 8.256H10.9788V8.27265L10.9799 8.28926L11.4788 8.256ZM11.4608 8.004H10.9608V8.03953L10.9658 8.07471L11.4608 8.004ZM11.4608 7.914H11.9608V7.89617L11.9595 7.87838L11.4608 7.914ZM11.4338 7.536H10.9338V7.55383L10.9351 7.57162L11.4338 7.536ZM11.4068 7.41L11.8355 7.15275L11.7777 7.05634L11.6841 6.99397L11.4068 7.41ZM11.2448 7.338L11.0478 7.79771L11.0591 7.80224L11.2448 7.338ZM11.0288 7.212L10.6966 7.5857L10.7063 7.59433L10.7164 7.60244L11.0288 7.212ZM10.9658 6.978L11.4627 7.03322L11.4637 7.0248L11.4643 7.01635L10.9658 6.978ZM11.2358 6.618L11.4594 7.06521L11.2358 6.118V6.618ZM11.2628 6.573L10.9092 6.21945L10.8897 6.23903L10.8724 6.26065L11.2628 6.573ZM11.3978 6.492L11.5835 6.95624L11.5942 6.95195L11.6047 6.94718L11.3978 6.492ZM11.5778 6.402L11.443 5.92052L11.3864 5.93637L11.335 5.96492L11.5778 6.402ZM12.0068 7.86927C12.0122 7.92773 12.0138 7.96514 12.0138 7.986H13.0138C13.0138 7.92286 13.0094 7.85227 13.0027 7.77873L12.0068 7.86927ZM12.0146 8.01374L12.0236 8.17573L13.022 8.12026L13.013 7.95826L12.0146 8.01374ZM12.0233 8.17056L12.0863 9.56556L13.0853 9.52044L13.0223 8.12544L12.0233 8.17056ZM12.0867 9.51364L12.0777 9.66664L13.0759 9.72536L13.0849 9.57236L12.0867 9.51364ZM12.2232 10.0496C12.3792 10.2055 12.5709 10.214 12.6398 10.214V9.214C12.6552 9.214 12.6916 9.21522 12.7389 9.22874C12.7872 9.24255 12.8614 9.27353 12.9303 9.34245L12.2232 10.0496ZM12.6398 10.214C12.8378 10.214 13.0315 10.1686 13.2089 10.0688L12.7187 9.19721C12.7041 9.20541 12.6818 9.214 12.6398 9.214V10.214ZM13.3925 9.89025C13.3721 9.92429 13.3509 9.94854 13.3353 9.96405C13.3197 9.97967 13.3067 9.98966 13.2994 9.99487C13.286 10.0045 13.2823 10.0047 13.2967 9.99818L12.8829 9.08782C12.8052 9.12313 12.6373 9.20537 12.535 9.37575L13.3925 9.89025ZM13.4433 9.89655C13.4219 9.91797 13.3925 9.93883 13.3565 9.95324L12.9851 9.02476C12.8891 9.06317 12.8057 9.12003 12.7362 9.18945L13.4433 9.89655ZM13.6708 9.489C13.6708 9.59159 13.6391 9.67043 13.6147 9.71695C13.59 9.76381 13.5629 9.79647 13.5464 9.81465C13.5144 9.84978 13.4862 9.86955 13.48 9.87387C13.4648 9.88451 13.4615 9.88466 13.4844 9.87321L13.0372 8.97879C13.0001 8.99734 12.9518 9.02299 12.9066 9.05463C12.8854 9.06945 12.8459 9.09859 12.8064 9.14198C12.7828 9.16803 12.6708 9.29153 12.6708 9.489H13.6708ZM13.6608 9.726C13.6617 9.72476 13.6614 9.72542 13.6595 9.72715C13.6576 9.72891 13.655 9.73101 13.6518 9.733L13.1218 8.885C13.0185 8.94959 12.9315 9.03169 12.8608 9.126L13.6608 9.726ZM13.6868 9.709C13.7157 9.68733 13.7469 9.66292 13.7752 9.6377C13.7893 9.6252 13.8083 9.60757 13.8279 9.58611C13.8422 9.57049 13.8823 9.5261 13.915 9.4606L13.0206 9.0134C13.0373 8.97986 13.0545 8.95552 13.0646 8.94206C13.0754 8.92758 13.0849 8.91684 13.0908 8.91039C13.1022 8.89793 13.1103 8.8908 13.1109 8.89029C13.1122 8.88908 13.1059 8.89467 13.0868 8.909L13.6868 9.709ZM13.8632 9.54309C14.0619 9.28641 14.1885 8.98392 14.2551 8.65106L13.2745 8.45494C13.2331 8.66208 13.1617 8.81559 13.0724 8.93091L13.8632 9.54309ZM14.2499 8.67427C14.2766 8.56745 14.2918 8.45758 14.2918 8.346H13.2918C13.2918 8.36642 13.289 8.39455 13.2797 8.43173L14.2499 8.67427ZM14.2837 8.43544C14.3069 8.30794 14.3056 8.18065 14.285 8.0568L13.2986 8.2212C13.302 8.24135 13.3007 8.25206 13.2999 8.25656L14.2837 8.43544ZM14.286 8.06297C14.2783 8.01334 14.2738 7.95501 14.2738 7.887H13.2738C13.2738 7.99899 13.2812 8.10866 13.2976 8.21503L14.286 8.06297ZM14.2688 7.81629C14.2491 7.67888 14.2224 7.54271 14.1807 7.42813L13.2409 7.76987C13.2472 7.78729 13.2624 7.84312 13.2788 7.95771L14.2688 7.81629ZM14.1177 7.30838C14.1413 7.3415 14.1423 7.36192 14.1397 7.34756L13.1559 7.52644C13.1772 7.64408 13.2203 7.7725 13.3039 7.88962L14.1177 7.30838ZM14.084 7.1927C13.9436 6.94197 13.7324 6.75789 13.4674 6.64995L13.0901 7.57605C13.1492 7.60011 13.1839 7.63203 13.2115 7.6813L14.084 7.1927ZM13.4757 6.65343C13.3243 6.58853 13.1691 6.58812 13.0604 6.59647L13.1371 7.59353C13.1549 7.59216 13.1589 7.59316 13.1525 7.59252C13.147 7.59197 13.1199 7.58889 13.0818 7.57257L13.4757 6.65343ZM13.1882 6.60307L13.0892 6.58506L12.9103 7.56893L13.0093 7.58693L13.1882 6.60307ZM12.9998 6.577C12.8302 6.577 12.6561 6.59624 12.4787 6.63171L12.6748 7.61229C12.7975 7.58775 12.9054 7.577 12.9998 7.577V6.577ZM12.4787 6.63171C12.3901 6.64943 12.2882 6.67508 12.1963 6.71752C12.1503 6.73874 12.0839 6.77442 12.0206 6.83323C11.9555 6.89362 11.8704 7.00122 11.8478 7.15929L12.8378 7.30071C12.8182 7.43778 12.7451 7.52513 12.701 7.56602C12.6587 7.60532 12.6223 7.62226 12.6153 7.62548C12.6014 7.63192 12.6134 7.62457 12.6748 7.61229L12.4787 6.63171ZM11.8428 7.23C11.8428 7.57413 12.1283 7.70357 12.2117 7.73134L12.5279 6.78266C12.5594 6.79315 12.6324 6.82152 12.7031 6.8922C12.786 6.97515 12.8428 7.09473 12.8428 7.23H11.8428ZM12.3698 7.757C12.2662 7.757 12.1868 7.723 12.139 7.69478C12.0927 7.66741 12.0642 7.63875 12.0519 7.62539C12.0288 7.60037 12.0251 7.58791 12.0376 7.61105L12.918 7.13695C12.8885 7.08209 12.8458 7.01113 12.7867 6.94711C12.7419 6.89856 12.6 6.757 12.3698 6.757V7.757ZM11.982 7.43867L12.009 7.64567L13.0006 7.51633L12.9736 7.30933L11.982 7.43867ZM12.0048 7.581V7.824H13.0048V7.581H12.0048ZM12.2268 6.78089L12.5058 6.74489L12.3778 5.75311L12.0988 5.78911L12.2268 6.78089ZM12.4418 6.749C12.4334 6.749 12.4328 6.7484 12.4428 6.74964C12.452 6.7508 12.4667 6.75309 12.4877 6.75729L12.6838 5.77671C12.6106 5.76206 12.5257 5.749 12.4418 5.749V6.749ZM12.5858 6.767C12.6354 6.767 12.7031 6.77245 12.7916 6.7872L12.956 5.8008C12.8285 5.77955 12.7041 5.767 12.5858 5.767V6.767ZM12.8738 6.794C13.1362 6.794 13.2587 6.81669 13.2936 6.82893L13.624 5.88507C13.4189 5.81331 13.1514 5.794 12.8738 5.794V6.794ZM13.3007 6.83134C13.4444 6.87924 13.6009 6.92233 13.7694 6.9612L13.9942 5.9868C13.8506 5.95367 13.7252 5.91876 13.6169 5.88266L13.3007 6.83134ZM13.7694 6.9612C13.8283 6.97479 13.9762 7.03897 14.2371 7.21875L14.8044 6.39525C14.5254 6.20303 14.2473 6.04521 13.9942 5.9868L13.7694 6.9612ZM14.1672 7.16055L14.2662 7.25955L14.9733 6.55245L14.8743 6.45345L14.1672 7.16055ZM14.6198 7.406C14.5028 7.406 14.4196 7.36358 14.3828 7.3415C14.3433 7.31781 14.3193 7.29462 14.3112 7.28655L15.0183 6.57945C14.9923 6.55338 14.9518 6.51669 14.8973 6.484C14.8455 6.45292 14.7487 6.406 14.6198 6.406V7.406ZM14.3648 7.333C14.3908 7.35253 14.4397 7.38846 14.4952 7.41621L14.9424 6.52178C14.9537 6.52742 14.9618 6.53215 14.9659 6.53463C14.9703 6.53728 14.973 6.53906 14.9736 6.53947C14.9746 6.54014 14.972 6.5384 14.9648 6.533L14.3648 7.333ZM14.2823 7.21291C14.3619 7.3554 14.4061 7.5018 14.4183 7.65635L15.4152 7.57765C15.3914 7.2762 15.3036 6.9906 15.1553 6.72509L14.2823 7.21291ZM14.436 7.75436C14.4316 7.73887 14.4242 7.70201 14.4326 7.6518L15.419 7.8162C15.4394 7.69399 15.426 7.57913 15.3976 7.47964L14.436 7.75436ZM14.4258 7.734V7.869H15.4258V7.734H14.4258ZM14.4576 8.04456C14.448 8.01902 14.4463 8.00218 14.446 7.99965C14.4458 7.99691 14.4466 8.00282 14.4453 8.01965L15.4423 8.09635C15.4512 7.98028 15.4474 7.83604 15.394 7.69344L14.4576 8.04456ZM14.4453 8.01965C14.4442 8.03393 14.4431 8.04516 14.4421 8.05369C14.4411 8.06238 14.4403 8.06683 14.4401 8.06786C14.4399 8.06937 14.4408 8.06369 14.4437 8.05312C14.4453 8.04759 14.4478 8.03928 14.4516 8.02894C14.4553 8.0188 14.4611 8.00441 14.4696 7.98739L15.364 8.43461C15.4033 8.35606 15.4183 8.27919 15.4249 8.24164C15.4333 8.19419 15.4386 8.14432 15.4423 8.09635L14.4453 8.01965ZM14.4168 8.211C14.4168 8.22308 14.4158 8.2192 14.4186 8.20436C14.421 8.1914 14.43 8.14942 14.461 8.09775L15.3185 8.61225C15.4087 8.46197 15.4168 8.3 15.4168 8.211H14.4168ZM14.4256 8.1693C14.4057 8.21898 14.3718 8.31353 14.3718 8.427H15.3718C15.3718 8.47089 15.3649 8.50275 15.3614 8.51677C15.3575 8.53214 15.354 8.54067 15.354 8.54069L14.4256 8.1693ZM14.3718 8.427C14.3718 8.39712 14.3746 8.37436 14.3754 8.36808C14.3766 8.35865 14.3778 8.35169 14.3783 8.34868C14.3793 8.34266 14.38 8.33991 14.3794 8.34265C14.3783 8.34753 14.3758 8.35851 14.371 8.37773C14.3616 8.41532 14.3467 8.4719 14.326 8.54901L15.2916 8.80899C15.3128 8.7301 15.3295 8.66668 15.3411 8.62027C15.3468 8.59749 15.3521 8.57547 15.3563 8.55635C15.3583 8.54709 15.361 8.53459 15.3633 8.52106C15.3637 8.51912 15.3718 8.47715 15.3718 8.427H14.3718ZM14.3226 8.56231C14.3054 8.63403 14.2913 8.6887 14.2802 8.72813C14.2747 8.74778 14.2705 8.76151 14.2676 8.77036C14.2643 8.78061 14.2645 8.77882 14.2682 8.77004L15.1874 9.16396C15.2253 9.07537 15.2615 8.93507 15.295 8.79569L14.3226 8.56231ZM14.2682 8.77004C14.2745 8.75533 14.2801 8.7446 14.283 8.73917C14.2862 8.73328 14.2885 8.72941 14.2894 8.72803C14.2909 8.72554 14.2901 8.72698 14.2856 8.73351C14.2766 8.7466 14.2609 8.76822 14.2364 8.80021C14.1877 8.86367 14.1156 8.95357 14.0181 9.07181L14.7895 9.70819C14.8899 9.58643 14.9708 9.48583 15.0302 9.40829C15.0597 9.36978 15.0867 9.33328 15.1092 9.30061C15.1247 9.27814 15.1612 9.22501 15.1874 9.16396L14.2682 8.77004ZM14.0502 9.03645C13.9372 9.14951 13.82 9.27265 13.7548 9.377L14.6028 9.907C14.5967 9.91673 14.5946 9.91863 14.601 9.91051C14.6067 9.90341 14.6161 9.89211 14.6305 9.87601C14.6594 9.8436 14.701 9.79986 14.7573 9.74355L14.0502 9.03645ZM13.7537 9.37882L13.6367 9.56782L14.4869 10.0942L14.6039 9.90518L13.7537 9.37882ZM13.6632 9.52907C13.4842 9.76544 13.2171 9.8999 12.7603 9.87193L12.6992 10.8701C13.4184 10.9141 14.0394 10.6886 14.4603 10.1329L13.6632 9.52907ZM12.9534 9.92379C12.8767 9.88544 12.8059 9.87528 12.7926 9.87318C12.7648 9.8688 12.7392 9.86662 12.7203 9.86536C12.6816 9.86278 12.6382 9.862 12.5948 9.862V10.862C12.6294 10.862 12.6475 10.8627 12.6538 10.8631C12.6574 10.8634 12.6501 10.8631 12.6366 10.8609C12.6297 10.8599 12.616 10.8575 12.5983 10.8529C12.5891 10.8505 12.5768 10.847 12.5625 10.842C12.5485 10.8371 12.5288 10.8295 12.5062 10.8182L12.9534 9.92379ZM12.0949 10.3698L12.1039 10.9458L13.1037 10.9302L13.0947 10.3542L12.0949 10.3698ZM12.1039 10.9282L12.0949 11.3872L13.0947 11.4068L13.1037 10.9478L12.1039 10.9282ZM12.0948 11.397V11.55H13.0948V11.397H12.0948ZM12.0948 11.55C12.0948 11.5766 12.0937 11.5957 12.0925 11.6083C12.0913 11.6214 12.0902 11.6236 12.0917 11.6177L13.0619 11.8603C13.0878 11.7567 13.0948 11.6483 13.0948 11.55H12.0948ZM12.0807 11.677C12.0718 11.7478 12.0678 11.8196 12.0678 11.892H13.0678C13.0678 11.8564 13.0698 11.8262 13.0729 11.801L12.0807 11.677ZM12.0691 11.8564C12.0679 11.8723 12.0668 11.8846 12.0658 11.8936C12.0647 11.9029 12.0641 11.9068 12.0641 11.9064C12.0642 11.906 12.0646 11.9036 12.0655 11.8996C12.0664 11.8958 12.0681 11.8889 12.0709 11.8797C12.0736 11.8709 12.0782 11.8569 12.0856 11.8397C12.0926 11.8233 12.1049 11.7974 12.1248 11.7676L12.9568 12.3224C13.0269 12.2172 13.0447 12.1044 13.0489 12.0801C13.0577 12.0305 13.0629 11.9776 13.0665 11.9276L12.0691 11.8564ZM12.0839 11.8419C12.0941 11.8189 12.1216 11.7754 12.1759 11.7417C12.228 11.7093 12.2711 11.707 12.2798 11.707V12.707C12.4145 12.707 12.5641 12.6777 12.7032 12.5913C12.8445 12.5036 12.9394 12.3791 12.9977 12.2481L12.0839 11.8419ZM12.2798 11.707C12.1694 11.707 12.1012 11.7033 12.0653 11.6991C12.0461 11.6969 12.0519 11.6962 12.0716 11.702C12.0817 11.705 12.1066 11.7129 12.1382 11.7294C12.1547 11.738 12.1764 11.7507 12.2004 11.7689C12.2244 11.787 12.2541 11.8133 12.2832 11.8497L11.5024 12.4743C11.6118 12.6112 11.7581 12.6522 11.7894 12.6614C11.8473 12.6784 11.9045 12.6871 11.9498 12.6924C12.0429 12.7032 12.1561 12.707 12.2798 12.707V11.707ZM11.8928 11.662C11.9152 11.662 11.9339 11.6635 11.947 11.665C11.9605 11.6664 11.972 11.6683 11.9806 11.6698C11.9975 11.6729 12.0109 11.6762 12.019 11.6783C12.0349 11.6825 12.0468 11.6866 12.0516 11.6882C12.0574 11.6903 12.0617 11.6919 12.0637 11.6927C12.0659 11.6935 12.0672 11.6941 12.0675 11.6942C12.0679 11.6943 12.0666 11.6938 12.0629 11.6922C12.0594 11.6907 12.0546 11.6886 12.0485 11.6858C12.023 11.6743 11.983 11.6558 11.9268 11.6291L11.4987 12.5329C11.5565 12.5602 11.6036 12.5822 11.6381 12.5977C11.6548 12.6052 11.6726 12.6131 11.6888 12.6197C11.6963 12.6228 11.7093 12.628 11.7245 12.6332C11.7317 12.6357 11.7456 12.6404 11.7631 12.645C11.7681 12.6464 11.8226 12.662 11.8928 12.662V11.662ZM11.9778 11.657C11.9709 11.6527 11.9749 11.6539 11.9825 11.6633C11.9907 11.6735 11.9973 11.686 12.001 11.6979L11.0465 11.9961C11.1167 12.2206 11.2641 12.3902 11.4478 12.505L11.9778 11.657ZM11.9996 11.6935C11.9758 11.6196 11.9635 11.5648 11.958 11.5265C11.9524 11.487 11.9558 11.4772 11.954 11.4882L10.9676 11.3238C10.9298 11.5504 10.9798 11.7894 11.0479 12.0005L11.9996 11.6935ZM11.9558 11.4767C11.9755 11.3382 11.9719 11.1031 11.9604 10.8272L10.9612 10.8688C10.9671 11.0092 10.9698 11.1201 10.9698 11.2035C10.9698 11.2451 10.9691 11.2775 10.968 11.3017C10.9669 11.3275 10.9656 11.3369 10.9658 11.3353L11.9558 11.4767ZM11.929 10.6724C11.9342 10.6865 11.9352 10.6943 11.935 10.6928C11.9348 10.6914 11.9338 10.6836 11.9338 10.668H10.9338C10.9338 10.7776 10.9469 10.9017 10.9926 11.0236L11.929 10.6724ZM11.881 10.8916C11.9286 10.7965 11.94 10.7029 11.9442 10.6647C11.9501 10.6123 11.9518 10.5577 11.9518 10.506H10.9518C10.9518 10.5212 10.9515 10.533 10.9511 10.5417C10.9507 10.5505 10.9503 10.5544 10.9503 10.5543C10.9504 10.5541 10.9506 10.5521 10.9511 10.5487C10.9517 10.5454 10.9527 10.5396 10.9545 10.5319C10.9562 10.5244 10.9591 10.5132 10.9637 10.4995C10.9682 10.486 10.9754 10.4668 10.9866 10.4444L11.881 10.8916ZM11.9518 10.506V10.353H10.9518V10.506H11.9518ZM11.9485 10.4103C11.9829 10.1123 12.0058 9.88803 12.0058 9.786H11.0058C11.0058 9.78445 11.0057 9.79452 11.0037 9.82336C11.0018 9.84973 10.9988 9.88492 10.9945 9.92985C10.986 10.0196 10.9729 10.1412 10.9551 10.2957L11.9485 10.4103ZM12.0058 9.786C12.0058 9.76614 12.0068 9.76205 12.0059 9.76883C12.0054 9.77267 12.0038 9.78351 11.9997 9.79915C11.9959 9.81392 11.9877 9.84127 11.971 9.87461L11.0766 9.42739C11.0345 9.51147 11.0207 9.59178 11.0147 9.63667C11.0078 9.68845 11.0058 9.73986 11.0058 9.786H12.0058ZM11.988 9.8367C12.0215 9.75305 12.028 9.66763 12.0293 9.65438C12.0329 9.61748 12.0352 9.57589 12.0369 9.53334C12.0403 9.44711 12.0418 9.33225 12.0418 9.192H11.0418C11.0418 9.32775 11.0403 9.42739 11.0377 9.49416C11.0363 9.52811 11.0349 9.54765 11.0341 9.55649C11.0336 9.56106 11.0338 9.55751 11.0353 9.54883C11.0356 9.54705 11.0412 9.5112 11.0596 9.4653L11.988 9.8367ZM12.0418 9.192C12.0418 8.85761 12.023 8.56111 11.981 8.3088L10.9946 8.4732C11.0245 8.65289 11.0418 8.89039 11.0418 9.192H12.0418ZM11.9867 8.35774L11.9777 8.22274L10.9799 8.28926L10.9889 8.42426L11.9867 8.35774ZM11.9788 8.256C11.9788 8.1481 11.9711 8.04047 11.9558 7.93329L10.9658 8.07471C10.9745 8.13553 10.9788 8.1959 10.9788 8.256H11.9788ZM11.9608 8.004V7.914H10.9608V8.004H11.9608ZM11.9595 7.87838L11.9325 7.50038L10.9351 7.57162L10.9621 7.94962L11.9595 7.87838ZM11.9338 7.536C11.9338 7.43661 11.9189 7.29177 11.8355 7.15275L10.978 7.66725C10.9531 7.62573 10.9426 7.58976 10.9381 7.56876C10.9358 7.55794 10.9348 7.54962 10.9343 7.54442C10.9338 7.5392 10.9338 7.53626 10.9338 7.536H11.9338ZM11.6841 6.99397C11.6347 6.96102 11.579 6.93638 11.5559 6.92609C11.5207 6.91045 11.4781 6.89283 11.4305 6.87376L11.0591 7.80224C11.1014 7.81917 11.1309 7.83155 11.1497 7.83991C11.1592 7.84411 11.163 7.84601 11.1629 7.84596C11.1628 7.84588 11.16 7.84452 11.1555 7.84202C11.1516 7.83986 11.142 7.83441 11.1294 7.82603L11.6841 6.99397ZM11.4417 6.87843C11.3916 6.85692 11.3601 6.83671 11.3411 6.82156L10.7164 7.60244C10.8175 7.68329 10.93 7.74707 11.0478 7.79757L11.4417 6.87843ZM11.361 6.8383C11.4153 6.88659 11.4436 6.94383 11.4553 6.98751C11.4656 7.0257 11.4614 7.04528 11.4627 7.03322L10.4688 6.92278C10.4484 7.107 10.4691 7.38346 10.6966 7.5857L11.361 6.8383ZM11.4643 7.01635C11.464 7.02057 11.4627 7.0295 11.4584 7.04107C11.4541 7.0528 11.4482 7.0631 11.4423 7.071C11.4305 7.08677 11.4277 7.08105 11.4594 7.06521L11.0122 6.17079C10.724 6.31488 10.4956 6.57098 10.4673 6.93965L11.4643 7.01635ZM11.2358 6.118C11.3376 6.118 11.5408 6.15636 11.663 6.36005C11.76 6.52172 11.7319 6.67561 11.7244 6.71325C11.7134 6.76801 11.6956 6.80777 11.6885 6.82311C11.6795 6.84227 11.6713 6.85651 11.6668 6.864C11.6527 6.88742 11.6427 6.89845 11.6532 6.88535L10.8724 6.26065C10.8588 6.27755 10.8323 6.31108 10.8093 6.3495C10.8057 6.35546 10.7626 6.42294 10.7438 6.51713C10.7359 6.55664 10.7079 6.71194 10.8055 6.87454C10.9283 7.07917 11.1325 7.118 11.2358 7.118V6.118ZM11.6163 6.92655C11.5966 6.94632 11.5809 6.95621 11.5763 6.959C11.5714 6.96193 11.5728 6.96051 11.5835 6.95624L11.2121 6.02776C11.1189 6.06505 11.0055 6.12322 10.9092 6.21945L11.6163 6.92655ZM11.6047 6.94718C11.6809 6.91256 11.7531 6.87659 11.8206 6.83908L11.335 5.96492C11.2945 5.98741 11.2467 6.01144 11.1909 6.03682L11.6047 6.94718ZM11.7126 6.88348C11.7795 6.86476 11.8301 6.85267 11.8667 6.84556C11.9071 6.83771 11.9149 6.839 11.9018 6.839V5.839C11.7604 5.839 11.5936 5.87834 11.443 5.92052L11.7126 6.88348ZM11.9018 6.839C12.0514 6.839 12.1979 6.80285 12.3292 6.75649L11.9964 5.8135C11.9623 5.82555 11.937 5.83229 11.9197 5.83587C11.9022 5.83951 11.8969 5.839 11.9018 5.839V6.839Z" fill="#FF843F"/>
<path class="hw_svgicon__stroke" d="M18 9C18 13.368 14.2461 17 9.5 17C4.75395 17 1 13.368 1 9C1 4.63198 4.75395 1 9.5 1C14.2461 1 18 4.63198 18 9Z" stroke="#FF843F" stroke-width="2"/>
</svg>
